<svg width="24" height="16" viewBox="0 0 24 16" fill="none" xmlns="http://www.w3.org/2000/svg"><path d="M11.105 12.669l.412-2.477a1.864 1.864 0 00-1.835-2.167h-7.06a1.86 1.86 0 00-1.835 2.167l.412 2.477a3.988 3.988 0 003.933 3.33h2.04a3.988 3.988 0 003.933-3.33zm-1.161-2.74l-.413 2.477a2.392 2.392 0 01-2.36 1.999H5.133a2.392 2.392 0 01-2.359-1.999L2.361 9.93a.266.266 0 01.261-.31h7.06a.264.264 0 01.262.31zm12.856 2.74l.413-2.477a1.864 1.864 0 00-1.835-2.167h-7.06a1.86 1.86 0 00-1.835 2.167l.412 2.477a3.988 3.988 0 003.933 3.33h2.04a3.988 3.988 0 003.933-3.33zm-1.16-2.74l-.413 2.477a2.392 2.392 0 01-2.36 1.999h-2.039a2.392 2.392 0 01-2.36-1.999l-.412-2.476a.266.266 0 01.262-.31h7.06a.264.264 0 01.261.31z" fill="#8D0327"/><path d="M13.255 9.089h-2.51a.798.798 0 000 1.595h2.51a.798.798 0 000-1.595zm9.088-.459l-1.805-7.22A1.862 1.862 0 0017.9.197l-.941.47a.797.797 0 10.712 1.427l.941-.471a.266.266 0 01.378.173l1.804 7.22a.799.799 0 001.548-.386zm-19.138.387l1.804-7.22a.268.268 0 01.378-.174l.94.47A.797.797 0 107.04.668l-.941-.47A1.861 1.861 0 003.462 1.41L1.657 8.63a.799.799 0 001.548.387z" fill="#8D0327"/></svg>