<svg width="326" height="265" viewBox="0 0 326 265" fill="none" xmlns="http://www.w3.org/2000/svg"><path d="M6 85V6h80" stroke="#FFF0F5"/><path d="M13 58V13h46" stroke="#FFF0F5"/><path d="M323 0a3.003 3.003 0 012.772 1.852 2.998 2.998 0 01-.651 3.27 2.997 2.997 0 01-4.615-.455A2.997 2.997 0 01320 3h1.5a1.499 1.499 0 002.971.293 1.503 1.503 0 00-.638-1.54A1.496 1.496 0 00323 1.5V0zM3 259a2.998 2.998 0 012.772 1.852 2.999 2.999 0 01-3.92 3.92A3.002 3.002 0 010 262h1.5a1.496 1.496 0 00.926 1.386 1.503 1.503 0 002.045-1.093A1.501 1.501 0 003 260.5V259z" fill="#FFF0F5"/><path d="M323 1.5V0H0v262h1.5V1.5H323z" fill="#FFF0F5"/></svg>