<svg width="47" height="48" viewBox="0 0 47 48" fill="none" xmlns="http://www.w3.org/2000/svg"><path fill-rule="evenodd" clip-rule="evenodd" d="M45.754 20.265a.938.938 0 00-.786-.188L30.66 23.14l-1.604-.343 4.234-8.481a10.112 10.112 0 00.876-4.134C34.166 4.567 29.6 0 23.986 0s-10.18 4.567-10.18 10.18a10.106 10.106 0 00.876 4.135l3.021 6.051-1.35-.288-.039-.006-.055-.01-.05-.002a.47.47 0 00-.053-.003l-.052.002-.052.004-.053.008-.04.006-14.504 3.104a.937.937 0 00-.74.916v7.733a.937.937 0 101.874 0v-6.974l12.63-2.702V43.2l-12.63 2.702V39.33a.937.937 0 10-1.875 0v7.733a.937.937 0 001.134.916l14.308-3.061 14.308 3.061.016.003.062.01c.01 0 .019.002.028.003a.895.895 0 00.18 0c.01 0 .02-.002.028-.003a.918.918 0 00.063-.01l.015-.003 14.505-3.103a.938.938 0 00.741-.917v-7.732a.937.937 0 10-1.875 0V43.2l-12.63 2.702V24.856l12.63-2.702v6.573a.937.937 0 101.875 0v-7.733a.939.939 0 00-.348-.729zM15.68 10.181c0-4.58 3.726-8.306 8.306-8.306 4.58 0 8.305 3.726 8.305 8.306a8.245 8.245 0 01-.69 3.317l-7.615 15.254-7.616-15.254a8.239 8.239 0 01-.69-3.317zm1.413 11.973l1.682.36 4.372 8.756a.938.938 0 001.678 0l3.366-6.742 1.532.328v21.047l-12.63-2.702V22.154z" fill="#8D0327"/><path fill-rule="evenodd" clip-rule="evenodd" d="M30.014 10.18a6.035 6.035 0 00-6.028-6.028 6.035 6.035 0 00-6.029 6.029 6.035 6.035 0 006.029 6.028 6.035 6.035 0 006.028-6.028zm-10.182 0a4.158 4.158 0 014.154-4.153 4.158 4.158 0 014.153 4.154 4.158 4.158 0 01-4.153 4.153 4.158 4.158 0 01-4.154-4.153zM1.652 36.518a.94.94 0 00.937-.938.94.94 0 00-.937-.937.94.94 0 00-.938.937.94.94 0 00.938.938zm43.513-4.978a.94.94 0 00-.938.937.94.94 0 00.938.937.94.94 0 00.937-.937.94.94 0 00-.937-.938z" fill="#8D0327"/></svg>