<svg width="49" height="48" viewBox="0 0 49 48" fill="none" xmlns="http://www.w3.org/2000/svg"><g clip-path="url(#clip0_1140_1016)" fill="#8D0327"><path d="M47.205 34.562h-3.217a.937.937 0 010-1.874h3.217a.938.938 0 010 1.874zm-4.283-4.138a.938.938 0 01-.33-1.815l2.422-.908a.937.937 0 11.658 1.756l-2.422.908a.933.933 0 01-.328.06zm2.421 9.184a.95.95 0 01-.329-.06l-2.422-.907a.937.937 0 01.658-1.756l2.422.907a.937.937 0 01-.329 1.816zM39.77 21.454a12.213 12.213 0 004.089-9.157C43.859 5.517 38.342 0 31.562 0H22.85l-.001.002A22.55 22.55 0 0010.2 3.867a.937.937 0 101.05 1.553 20.682 20.682 0 0111.6-3.543c1.247 0 2.495.11 3.711.329a9.678 9.678 0 016.866 5.003c1.388 2.604 1.51 5.637.333 8.32a17.238 17.238 0 01-3.617 5.282 17.183 17.183 0 01-6.094 3.949 9.951 9.951 0 00-4.861 3.928 9.9 9.9 0 00-1.58 6.046l.002.022c.143 1.984-.865 3.794-2.63 4.725-1.697.895-3.597.723-5.084-.458-5.001-3.977-7.872-9.918-7.877-16.3a20.683 20.683 0 013.545-11.616.937.937 0 10-1.555-1.048A22.55 22.55 0 00.144 22.725c.005 6.956 3.134 13.43 8.585 17.765a6.544 6.544 0 002.513 1.241l-2.03 4.977a.937.937 0 101.737.708l2.248-5.515a6.653 6.653 0 002.658-.762c2.43-1.282 3.82-3.776 3.626-6.51l-.001-.015c-.228-3.572 1.875-6.828 5.233-8.101a19.049 19.049 0 006.756-4.376 19.105 19.105 0 004.008-5.855c.272-.62.485-1.257.642-1.901.264 1.261.401 2.55.401 3.842v1.434c0 .184.054.364.155.517l3.768 5.705-3.102 2.13a.937.937 0 00-.407.773v2.765l-2.988 1.352a.937.937 0 00.054 1.73l2.934 1.112v2.024a2.277 2.277 0 01-2.275 2.275h-9.047a.938.938 0 000 1.875h2.343l-1.864 4.809a.938.938 0 001.748.677l2.127-5.486h4.693a4.154 4.154 0 004.15-4.15v-2.671c0-.4-.252-.742-.606-.876l-1.428-.542 1.408-.637a.937.937 0 00.625-.883v-2.88l2.696-1.852a1.888 1.888 0 00.504-2.585l-2.239-3.385zm-1.048-1.584l-.327-.495v-1.152c0-3.363-.834-6.707-2.41-9.678a11.61 11.61 0 00-.904-2.218 11.573 11.573 0 00-4.188-4.452h.669c5.747 0 10.422 4.675 10.422 10.422 0 2.9-1.178 5.608-3.262 7.573z"/><path d="M7.47 8.265a.942.942 0 01-.664-.275.943.943 0 01-.274-.663c0-.246.1-.488.274-.663a.946.946 0 01.663-.274.94.94 0 01.663 1.6.94.94 0 01-.663.275z"/></g><defs><clipPath id="clip0_1140_1016"><path fill="#fff" transform="translate(.143)" d="M0 0h48v48H0z"/></clipPath></defs></svg>