<svg width="36" height="48" viewBox="0 0 36 48" fill="none" xmlns="http://www.w3.org/2000/svg"><path d="M3.795 17.813c0 7.754 6.308 14.062 14.062 14.062S31.92 25.567 31.92 17.812c0-7.754-6.309-14.062-14.063-14.062-7.754 0-14.062 6.308-14.062 14.063zM17.857 5.624c6.72 0 12.188 5.467 12.188 12.188 0 6.72-5.468 12.187-12.188 12.187-6.72 0-12.187-5.467-12.187-12.188 0-6.72 5.467-12.187 12.187-12.187z" fill="#8D0327"/><path d="M9.175 16.14l3.634 3.581-.836 5.032a.937.937 0 001.357.986l4.527-2.351 4.527 2.351a.937.937 0 001.357-.986l-.836-5.032 3.634-3.58a.937.937 0 00-.519-1.595l-5.043-.76-2.282-4.563a.937.937 0 00-1.676 0l-2.282 4.564-5.043.759a.937.937 0 00-.519 1.595zm6.322-.572a.938.938 0 00.7-.507l1.66-3.322 1.661 3.322a.938.938 0 00.7.507l3.67.553-2.646 2.605a.94.94 0 00-.267.822l.61 3.663-3.296-1.711a.935.935 0 00-.864 0l-3.295 1.71.609-3.662a.938.938 0 00-.267-.822l-2.645-2.605 3.67-.553zM18.795.938a.937.937 0 11-1.875 0 .937.937 0 011.875 0z" fill="#8D0327"/><path d="M13.439.553A17.796 17.796 0 00.045 17.813a17.76 17.76 0 005.863 13.208L.26 40.975a.938.938 0 001.006 1.38l6.415-1.331 2.254 6.352a.937.937 0 001.698.15l6.224-10.942 6.224 10.942a.937.937 0 001.698-.15l2.254-6.352 6.415 1.331a.938.938 0 001.006-1.38l-5.649-9.954a17.757 17.757 0 005.864-13.208c0-8.15-5.507-15.247-13.393-17.26a.937.937 0 10-.465 1.817 15.922 15.922 0 0111.984 15.443c0 8.874-7.208 15.937-15.938 15.937-8.736 0-15.937-7.069-15.937-15.937A15.922 15.922 0 0113.902 2.37.938.938 0 0013.44.553zm-2.422 44.265l-1.843-5.192a.938.938 0 00-1.074-.604l-5.186 1.077 4.47-7.878a17.851 17.851 0 008.901 3.334l-5.268 9.263zm16.597-5.796a.938.938 0 00-1.074.604l-1.842 5.192-5.269-9.263a17.853 17.853 0 008.902-3.334l4.47 7.878-5.187-1.077z" fill="#8D0327"/></svg>