<svg width="48" height="48" viewBox="0 0 48 48" fill="none" xmlns="http://www.w3.org/2000/svg"><g clip-path="url(#clip0_1140_991)" fill="#8D0327"><path d="M47.804 20.19L39.77 9.754a.941.941 0 00-1.25-.22l-5.188 3.299h-6.765a.931.931 0 00-.259.043l-5.245 1.51-5.442-1.489-5.289-3.363a.94.94 0 00-1.237.203L.209 20.744a.941.941 0 00.118 1.304l4.658 4.008 4.178 5.631a3.33 3.33 0 00.073 4.627c.564.563 1.28.882 2.018.956a3.304 3.304 0 00.935 2.86 3.305 3.305 0 002.352.975l.036-.002-.002.068c0 .889.347 1.724.975 2.352a3.306 3.306 0 002.871.934c.072.74.391 1.46.957 2.025.648.649 1.5.973 2.351.973.852 0 1.704-.324 2.353-.973l.508-.509.214.172a3.315 3.315 0 002.313.935c.852 0 1.703-.324 2.352-.973a3.316 3.316 0 00.972-2.404 3.32 3.32 0 003.376-3.375 3.307 3.307 0 002.404-.974 3.316 3.316 0 00.972-2.404c.87.014 1.743-.31 2.405-.972a3.331 3.331 0 00.437-4.164l3.05-6.39 4.587-3.947a.941.941 0 00.132-1.287zm-37.773-8.617l3.803 2.418L5.562 24.07l-3.315-2.854 7.784-9.643zm.537 21.368l1.147-1.148a1.44 1.44 0 01.893-.417h.025a1.435 1.435 0 011.153.447c.532.562.503 1.48-.064 2.047l-1.113 1.113a1.445 1.445 0 01-2.041 0 1.446 1.446 0 010-2.042zm2.952 5.858a1.433 1.433 0 01-.422-1.02c0-.386.15-.749.422-1.022l2.226-2.225a1.46 1.46 0 011.641-.284c.562.268.878.878.796 1.491a1.524 1.524 0 01-.43.87l-2.19 2.19a1.434 1.434 0 01-1.022.423c-.385 0-.748-.15-1.02-.423zm3.36 3.393a1.433 1.433 0 01-.422-1.02c0-.386.15-.749.423-1.022l2.225-2.225a1.46 1.46 0 011.745-.23c.51.297.777.88.69 1.46-.049.319-.2.619-.428.847l-2.19 2.19a1.434 1.434 0 01-1.021.423c-.386 0-.748-.15-1.021-.423zm3.828 2.959a1.446 1.446 0 010-2.042l1.148-1.148a1.511 1.511 0 01.111-.1c.187-.151.406-.253.64-.297l.017-.002a.995.995 0 01.122-.017l.05-.003c.034-.002.067-.004.1-.003a1.435 1.435 0 011.124.561c.433.566.374 1.407-.163 1.944l-1.107 1.107a1.445 1.445 0 01-2.042 0zm17.558-10.504a1.445 1.445 0 01-2.041 0 .864.864 0 00-.064-.058l-6.052-6.115a.941.941 0 00-1.338 1.324l6.117 6.181.002.002a1.446 1.446 0 01-1.02 2.465c-.387 0-.75-.15-1.022-.423l-4.092-4.135a.941.941 0 10-1.338 1.325l4.03 4.071a.76.76 0 00.066.074 1.446 1.446 0 010 2.042 1.446 1.446 0 01-2.043 0l-2.233-2.258a.941.941 0 10-1.338 1.324l2.171 2.194c.02.026.043.05.066.074a1.446 1.446 0 010 2.042 1.445 1.445 0 01-2.041 0c-.065-.065-.141-.115-.214-.17-.061-.047-.077-.08-.047-.155.031-.075.078-.144.11-.22a3.31 3.31 0 00.088-.26 3.38 3.38 0 00.122-1.448 3.312 3.312 0 00-1.405-2.291 3.303 3.303 0 00-1.4-.543c.242-1.07-.05-2.229-.806-3.029a3.301 3.301 0 00-2.47-1.04 3.322 3.322 0 00-.89-2.353 3.303 3.303 0 00-2.371-1.04 3.382 3.382 0 00-.803.085 3.301 3.301 0 00-1.1-2.017 3.3 3.3 0 00-2.128-.807 3.334 3.334 0 00-2.272.855L6.872 25.44l8.704-10.604 2.774.76-3.623 6.392a3.305 3.305 0 00-.312 2.527 3.303 3.303 0 001.713 2.085l.01.006a3.304 3.304 0 002.37.228 3.305 3.305 0 002.007-1.566l2.354-4.155 4.204.298 11.194 11.194a1.447 1.447 0 010 2.042zm.39-4.314l-10.5-10.501a.942.942 0 00-.599-.273l-5.147-.365a.957.957 0 00-.886.474l-2.647 4.672c-.19.335-.5.577-.871.68a1.435 1.435 0 01-1.097-.136c-.335-.19-.577-.5-.68-.871a1.433 1.433 0 01.136-1.097l3.533-6.236 1.432-.412.029-.01 5.344-1.543h6.457l8.06 10.247-2.564 5.37zm3.798-6.848l-7.455-9.481 3.805-2.42 6.965 9.048-3.315 2.853z"/><path d="M29.08 11.066c.24 0 .482-.092.665-.276l6.43-6.43a.941.941 0 10-1.332-1.33l-6.429 6.429a.941.941 0 00.666 1.607zm-10.825-.276a.938.938 0 001.33 0 .941.941 0 000-1.331l-6.429-6.43a.941.941 0 10-1.33 1.332l6.428 6.429zm5.745.275a.94.94 0 00.941-.94V4.802a.941.941 0 00-1.882 0v5.321c0 .52.421.941.94.941zm-.869-9.673c.15.363.522.6.915.58a.95.95 0 00.85-.652.948.948 0 00-.323-1.034.951.951 0 00-1.095-.036.948.948 0 00-.347 1.142z"/></g><defs><clipPath id="clip0_1140_991"><path fill="#fff" d="M0 0h48v48H0z"/></clipPath></defs></svg>