<svg width="49" height="46" viewBox="0 0 49 46" fill="none" xmlns="http://www.w3.org/2000/svg"><path d="M43.158 23.244l-5.222-8.064a2.179 2.179 0 00-1.836-.998H13.06a2.18 2.18 0 00-1.835.995l-5.238 8.066a2.192 2.192 0 00.201 2.646l16.75 18.804a2.19 2.19 0 003.266 0l16.751-18.805c.653-.733.736-1.82.203-2.644zm-8.116-7.188l-4.392 6.792-4.394-6.791h8.786zm-6.115 7.58h-8.713l4.357-6.733 4.356 6.733zm-6.042-7.58l-4.382 6.773-4.381-6.772h8.763zm-10.497.773l4.404 6.807H7.967l4.422-6.807zM8.364 25.51h9.435l4.99 16.194L8.362 25.511zM24.57 41.125L19.76 25.51h9.62l-4.81 15.614zm1.784.58l4.989-16.193h9.436L26.354 41.706zm6.02-18.069l4.399-6.802 4.405 6.802h-8.805zm-28.959.001H1.51a.938.938 0 000 1.875h1.906a.938.938 0 000-1.875zm44.219 0h-1.906a.938.938 0 000 1.875h1.906a.938.938 0 000-1.875zm-6.08-16.028a.938.938 0 00-1.326 0l-3.114 3.114a.938.938 0 001.326 1.325l3.114-3.114a.938.938 0 000-1.325zM12.07 10.706L8.954 7.592A.938.938 0 007.63 8.918l3.114 3.114a.935.935 0 001.325 0 .937.937 0 000-1.326zM24.595.574a.938.938 0 00-.937.938v6.11a.937.937 0 101.875 0v-6.11a.938.938 0 00-.938-.938zm.663 9.556a.944.944 0 00-.663-.275c-.247 0-.489.1-.663.275a.945.945 0 00-.275.663.94.94 0 001.6.663.94.94 0 000-1.326z" fill="#8D0327"/></svg>