<svg width="49" height="36" viewBox="0 0 49 36" fill="none" xmlns="http://www.w3.org/2000/svg"><path d="M38.733 35.515H1.286a1 1 0 01-1-1V13.081a1 1 0 011-1h37.447a1 1 0 011 1v21.434a1 1 0 01-1 1zm-36.447-2h35.447V14.081H2.286v19.434z" fill="#8D0327"/><path d="M32.286 32.485H7.739a1 1 0 01-1-1 2.01 2.01 0 00-2.008-2.007 1 1 0 01-1-1V19.12a1 1 0 011-1 2.011 2.011 0 002.008-2.008 1 1 0 011-1h24.547a1 1 0 011 1 2.01 2.01 0 002 2.008 1 1 0 011 1v9.36a1 1 0 01-1 1 2.01 2.01 0 00-2.007 2.006 1 1 0 01-.993 1zm-23.67-2h22.8a4.025 4.025 0 012.87-2.885v-7.608a4.022 4.022 0 01-2.881-2.88H8.612a4.02 4.02 0 01-2.881 2.88V27.6a4.023 4.023 0 012.88 2.885h.006z" fill="#8D0327"/><path d="M20.01 29.31a5.512 5.512 0 115.51-5.51 5.52 5.52 0 01-5.51 5.51zm0-9.023a3.512 3.512 0 10-.002 7.023 3.512 3.512 0 00.002-7.023z" fill="#8D0327"/><path d="M41.105 29.789a1 1 0 01-.1-1.995l1.154-.121-2.03-19.327-32.193 3.38a1 1 0 01-.21-1.99l33.185-3.484a1 1 0 011.1.89l2.239 21.317a1.002 1.002 0 01-.89 1.1l-2.15.226c-.035.002-.07.004-.105.004z" fill="#8D0327"/><path d="M45.653 23.848a1 1 0 01-.188-1.982l.65-.125-3.661-19.086-31.341 6.012a1.001 1.001 0 11-.377-1.967L43.06.5a1 1 0 011.17.793l4.038 21.051a1 1 0 01-.794 1.17l-1.632.313c-.063.013-.126.02-.19.021z" fill="#8D0327"/></svg>