<svg width="14" height="18" viewBox="0 0 14 18" fill="none" xmlns="http://www.w3.org/2000/svg"><path d="M12 17H2a1 1 0 01-1-1V2a1 1 0 011-1h5.563a1 1 0 01.734.32l4.437 4.792a1 1 0 01.266.68V16a1 1 0 01-1 1z" stroke="#961842" stroke-width="1.5" stroke-linecap="round" stroke-linejoin="round"/><path d="M13 7H8a1 1 0 01-1-1V1" stroke="#961842" stroke-width="1.5" stroke-linecap="round" stroke-linejoin="round"/><path d="M10.53 10.03a.75.75 0 10-1.06-1.06l1.06 1.06zM6 13.5l-.53.53a.75.75 0 001.06 0L6 13.5zm-1.47-2.53a.75.75 0 00-1.06 1.06l1.06-1.06zm4.94-2l-4 4 1.06 1.06 4-4-1.06-1.06zm-2.94 4l-2-2-1.06 1.06 2 2 1.06-1.06z" fill="#961842"/></svg>