<svg width="52" height="568" viewBox="0 0 52 568" fill="none" xmlns="http://www.w3.org/2000/svg"><path fill-rule="evenodd" clip-rule="evenodd" d="M.202 264.642c.11 0 .201.597.201 1.326 0 .729.09 1.326.202 1.326.11 0 .201.239.201.53 0 .292.09.531.202.531.11 0 .201.182.201.404 0 .527 1.711 2.778 2.111 2.778.17 0 .308.119.308.265 0 .146.181.265.403.265.222 0 .403.12.403.265 0 .146.181.266.403.266.222 0 .403.119.403.265 0 .146.272.265.605.265.333 0 .605.119.605.265 0 .159.806.265 2.015.265 1.881 0 2.016.036 2.016.531 0 .291.09.53.201.53.111 0 .202.597.202 1.326 0 .729.09 1.326.201 1.326.111 0 .202.477.202 1.06 0 .584.09 1.061.201 1.061.111 0 .202.477.202 1.061 0 .583.09 1.06.202 1.06.11 0 .201.358.201.796 0 .437.09.795.202.795.11 0 .201.358.201.796 0 .438.09.796.202.796.11 0 .201.477.201 1.06 0 .584.09 1.061.202 1.061.11 0 .201.239.201.53 0 .292.091.531.202.531.11 0 .201.358.201.795 0 .438.091.796.202.796.11 0 .201.238.201.53 0 .292.091.53.202.53.11 0 .202.239.202.531 0 .291.09.53.201.53.111 0 .202.239.202.53 0 .292.09.531.201.531.111 0 .202.358.202.795 0 .438.09.796.201.796.111 0 .202.212.202.471 0 .26.181.644.403.855.222.21.403.594.403.854 0 .259.09.471.202.471.11 0 .201.239.201.531 0 .291.09.53.202.53.11 0 .201.213.201.472 0 .26.182.644.403.854.222.21.404.568.404.796 0 .227.18.585.403.795.221.21.403.568.403.796 0 .227.181.585.403.795.221.21.403.544.403.742 0 .198.363.819.806 1.379.444.561.806 1.151.806 1.311 0 .375 2.14 3.197 2.424 3.197.36 0 1.324 1.406 1.047 1.528-.157.068-.246.677-.246 1.676 0 .87-.09 1.57-.201 1.57-.12 0-.202.972-.202 2.386 0 1.414-.082 2.387-.201 2.387-.111 0-.202-.239-.202-.531 0-.291-.09-.53-.202-.53-.11 0-.201-.212-.201-.472 0-.259-.182-.644-.403-.854-.222-.21-.403-.538-.403-.728 0-.451-1.724-2.719-2.067-2.719-.145 0-.394-.239-.554-.531-.16-.291-.451-.53-.649-.53-.197 0-.358-.119-.358-.265 0-.146-.272-.265-.605-.265-.332 0-.605-.12-.605-.265 0-.146-.362-.266-.806-.266-.443 0-.806-.119-.806-.265 0-.157-.74-.265-1.814-.265-1.075 0-1.814.108-1.814.265 0 .146-.363.265-.806.265-.444 0-.806.12-.806.266 0 .145-.182.265-.403.265-.222 0-.403.119-.403.265 0 .146-.182.265-.404.265-.221 0-.403.119-.403.265 0 .146-.161.265-.358.265-.198 0-.49.239-.65.531-.16.292-.408.53-.553.53-.322 0-2.067 2.255-2.067 2.671 0 .164-.272.633-.604 1.042-.333.408-.605.934-.605 1.167 0 .233-.09.424-.201.424-.111 0-.202.238-.202.53 0 .292-.09.53-.202.53-.11 0-.201.239-.201.531 0 .291-.09.53-.202.53-.11 0-.201.358-.201.796 0 .437-.09.795-.202.795-.11 0-.201.597-.201 1.326 0 .729-.091 1.326-.202 1.326-.12 0-.201 1.06-.201 2.651 0 1.592.08 2.652.201 2.652.111 0 .202.478.202 1.061s.09 1.061.201 1.061c.111 0 .202.358.202.795 0 .438.09.796.201.796.111 0 .202.238.202.53 0 .292.09.53.201.53.111 0 .202.239.202.531 0 .291.09.53.202.53.11 0 .201.212.201.472 0 .259.181.644.403.854.222.21.403.537.403.725 0 .447 3.342 4.844 3.682 4.844.143 0 .391.238.55.53.16.292.453.53.65.53s.359.12.359.265c0 .146.181.266.403.266.221 0 .403.119.403.265 0 .146.181.265.403.265.222 0 .403.119.403.265 0 .146.181.265.403.265.222 0 .403.12.403.265 0 .146.272.266.605.266.332 0 .604.119.604.265 0 .146.273.265.605.265.333 0 .605.119.605.265 0 .152.604.265 1.41.265.807 0 1.412.114 1.412.265 0 .155.671.266 1.612.266.94 0 1.612-.111 1.612-.266 0-.151.605-.265 1.411-.265s1.411-.113 1.411-.265c0-.146.272-.265.605-.265.332 0 .604-.119.604-.265 0-.146.272-.265.605-.265.333 0 .605-.12.605-.266 0-.145.181-.265.403-.265.222 0 .403-.119.403-.265 0-.146.181-.265.403-.265.222 0 .403-.119.403-.265 0-.146.181-.265.403-.265.222 0 .403-.12.403-.266 0-.145.182-.265.403-.265.222 0 .404-.119.404-.265 0-.146.09-.265.201-.265.11 0 .202.358.202.795 0 .438.09.796.201.796.111 0 .202.239.202.53 0 .292.09.531.201.531.111 0 .202.358.202.795 0 .438.09.796.201.796.111 0 .202.238.202.53 0 .292.09.53.201.53.111 0 .202.358.202.796 0 .437.09.795.202.795.11 0 .201.358.201.796 0 .437.09.795.202.795.11 0 .201.358.201.796 0 .437.09.795.202.795.11 0 .201.358.201.796 0 .437.091.795.202.795.11 0 .201.478.201 1.061 0 .584.091 1.061.202 1.061.112 0 .202.707.202 1.591s.089 1.591.201 1.591c.123 0 .202 1.237.202 3.182 0 1.944-.079 3.182-.202 3.182-.11 0-.201.597-.201 1.326 0 .729-.091 1.326-.202 1.326-.11 0-.202.358-.202.795 0 .438-.09.796-.201.796-.111 0-.202.358-.202.795 0 .438-.09.796-.201.796-.111 0-.202.239-.202.53 0 .292-.09.531-.201.531-.111 0-.202.18-.202.401 0 .523-3.328 4.902-3.726 4.902-.168 0-.305.119-.305.265 0 .146-.181.265-.403.265-.222 0-.403.12-.403.266 0 .145-.272.265-.605.265-.332 0-.604.119-.604.265 0 .157-.74.265-1.814.265-1.075 0-1.814-.108-1.814-.265 0-.146-.272-.265-.605-.265-.333 0-.605-.12-.605-.265 0-.146-.145-.266-.322-.266-.177 0-.576-.358-.887-.795-.31-.438-.71-.796-.887-.796-.177 0-.322-.212-.322-.471 0-.26-.182-.644-.403-.855-.222-.21-.403-.594-.403-.854 0-.259-.091-.471-.202-.471-.11 0-.202-.358-.202-.796 0-.437-.09-.795-.201-.795-.115 0-.202-.796-.202-1.857 0-1.06.087-1.856.202-1.856.11 0 .201-.239.201-.53 0-.292.091-.531.202-.531.11 0 .202-.182.202-.404 0-.527 1.71-2.778 2.11-2.778.17 0 .308-.119.308-.265 0-.157.74-.265 1.814-.265 2.068 0 2.279.277 1.21 1.591-.333.409-.605.934-.605 1.167 0 .233-.091.424-.202.424-.11 0-.201.477-.201 1.061 0 .583.09 1.06.201 1.06.111 0 .202.185.202.41 0 .531.898 1.712 1.3 1.712.172 0 .312.119.312.265 0 .146.363.265.806.265.444 0 .807-.119.807-.265 0-.146.14-.265.31-.265.404 0 1.302-1.181 1.302-1.712 0-.225.09-.41.201-.41.116 0 .202-.795.202-1.856 0-1.06-.086-1.856-.201-1.856-.111 0-.202-.239-.202-.53 0-.292-.09-.531-.202-.531-.11 0-.201-.184-.201-.409 0-.502-.889-1.712-1.257-1.712-.146 0-.397-.239-.557-.53-.16-.292-.452-.531-.65-.531-.196 0-.358-.119-.358-.265 0-.146-.363-.265-.806-.265-.444 0-.806-.119-.806-.265 0-.148-.538-.265-1.21-.265-.671 0-1.209.117-1.209.265 0 .146-.363.265-.806.265-.444 0-.806.119-.806.265 0 .146-.182.265-.403.265-.222 0-.403.12-.403.265 0 .146-.139.266-.307.266-.4 0-2.515 2.783-2.515 3.308 0 .222-.09.404-.202.404-.11 0-.201.239-.201.53 0 .292-.091.531-.202.531-.11 0-.201.477-.201 1.06 0 .584-.091 1.061-.202 1.061-.12 0-.202.973-.202 2.387 0 1.414.083 2.386.202 2.386.11 0 .202.478.202 1.061s.09 1.061.201 1.061c.111 0 .202.238.202.53 0 .292.09.53.201.53.111 0 .202.239.202.531 0 .291.09.53.201.53.111 0 .202.181.202.403 0 .524 2.52 3.84 2.919 3.84.44 0 .377.876-.097 1.326-.222.21-.403.568-.403.795 0 .227-.182.585-.404.796-.221.21-.403.538-.403.728 0 .451-1.724 2.719-2.066 2.719-.145 0-.394.239-.554.53-.17.312-.522.531-.85.531-.308 0-.56.063-.56.141 0 .328 1.423 1.98 1.706 1.98.17 0 .309.119.309.265 0 .146.272.265.604.265.333 0 .605-.119.605-.265 0-.146.139-.265.308-.265.52 0 2.11-2.293 2.11-3.043 0-.368.091-.669.202-.669.111 0 .202-.239.202-.531 0-.291.09-.53.201-.53.111 0 .202-.358.202-.796 0-.437.09-.795.201-.795.111 0 .202-.239.202-.531 0-.291.09-.53.202-.53.11 0 .201.358.201.796 0 .437-.09.795-.201.795-.118 0-.202.884-.202 2.122 0 1.237.084 2.121.202 2.121.11 0 .201.358.201.795 0 .438.09.796.202.796.133 0 .201 27.048.201 80.613v80.612h-.712c-.544 0-.877.217-1.41.919-.385.506-.7 1.076-.7 1.268 0 .191-.18.52-.403.73-.221.21-.403.538-.403.728 0 .483-1.736 2.719-2.11 2.719-.17 0-.308.119-.308.265 0 .146-.182.266-.403.266-.222 0-.404.119-.404.265 0 .146-.18.265-.403.265-.221 0-.403.063-.403.141 0 .329 1.424 1.98 1.707 1.98.17 0 .309.12.309.265 0 .146.272.266.604.266.333 0 .605-.12.605-.266 0-.145.139-.265.308-.265.52 0 2.11-2.293 2.11-3.042 0-.369.091-.67.202-.67.111 0 .202-.239.202-.531 0-.291.09-.53.201-.53.111 0 .202-.358.202-.795 0-.438.09-.796.201-.796.111 0 .202-.239.202-.53 0-.292.09-.531.202-.531.11 0 .201.358.201.796 0 .437-.09.795-.201.795-.118 0-.202.884-.202 2.122 0 1.237.084 2.121.202 2.121.11 0 .201.358.201.796 0 .437.09.795.202.795.11 0 .201.358.201.796 0 .437.09.795.202.795.11 0 .201.239.201.531 0 .291.091.53.202.53.11 0 .201.187.201.417 0 .402.455 1.174.692 1.174.063 0 .115-.358.115-.796 0-.437.09-.795.201-.795.111 0 .202-.239.202-.53 0-.292.09-.531.201-.531.111 0 .202-.238.202-.53 0-.292.09-.53.201-.53.111 0 .202-.358.202-.796 0-.437.09-.795.201-.795.121 0 .202-1.061.202-2.652 0-1.591-.08-2.652-.201-2.652-.111 0-.202-.239-.202-.53 0-.292.09-.531.201-.531.111 0 .202.239.202.531 0 .291.09.53.202.53.11 0 .201.239.201.53 0 .292.09.531.202.531.11 0 .201.358.201.795 0 .438.091.796.202.796.11 0 .201.238.201.53 0 .292.091.531.202.531.11 0 .201.182.201.406 0 .528 1.306 2.245 1.707 2.245.17 0 .309.12.309.265 0 .146.272.266.605.266.332 0 .604-.12.604-.266 0-.145.162-.265.359-.265.197 0 .49-.238.649-.53.16-.292.452-.53.65-.53.223 0 .358-.199.358-.531 0-.353-.135-.53-.403-.53-.222 0-.403-.119-.403-.265 0-.146-.145-.265-.323-.265-.177 0-.576-.358-.887-.796-.31-.438-.71-.796-.887-.796-.177 0-.322-.19-.322-.424 0-.233-.272-.758-.605-1.167-.332-.408-.604-.877-.604-1.041 0-.602-1.792-2.671-2.313-2.671h-.509v-81.143c0-53.918.068-81.143.201-81.143.121 0 .202-1.06.202-2.651 0-1.591-.08-2.652-.201-2.652-.111 0-.202-.239-.202-.531 0-.291.09-.53.201-.53.111 0 .202.239.202.53 0 .292.09.531.202.531.11 0 .201.238.201.53 0 .292.09.531.202.531.11 0 .201.358.201.795 0 .438.09.796.202.796.11 0 .201.238.201.53 0 .292.091.53.202.53.11 0 .201.183.201.407 0 .528 1.306 2.245 1.707 2.245.17 0 .309.119.309.265 0 .146.272.265.605.265.332 0 .604-.119.604-.265 0-.146.182-.265.403-.265.222 0 .404-.119.404-.265 0-.146.142-.265.316-.265.407 0 .893-.639.893-1.175 0-.24-.171-.416-.403-.416-.222 0-.403-.12-.403-.266 0-.145-.145-.265-.323-.265-.177 0-.576-.358-.887-.795-.31-.438-.71-.796-.887-.796-.177 0-.322-.188-.322-.418 0-.231-.37-.886-.822-1.457-.731-.925-.788-1.083-.518-1.438.167-.22.627-.399 1.023-.399.396 0 .72-.12.72-.265 0-.146.181-.266.403-.266.222 0 .403-.119.403-.265 0-.146.182-.265.403-.265.222 0 .404-.119.404-.265 0-.146.18-.265.403-.265.221 0 .403-.12.403-.265 0-.146.137-.266.305-.266.397 0 4.129-4.909 4.129-5.432 0-.221.09-.401.201-.401.111 0 .202-.239.202-.531 0-.291.09-.53.201-.53.111 0 .202-.239.202-.53 0-.292.09-.531.202-.531.11 0 .201-.238.201-.53 0-.292.09-.53.202-.53.11 0 .201-.358.201-.796 0-.438.09-.795.202-.795.11 0 .201-.478.201-1.061 0-.584.091-1.061.202-1.061.11 0 .201-.597.201-1.326 0-.729.091-1.326.202-1.326.123 0 .202-1.237.202-3.182 0-1.944-.079-3.182-.202-3.182-.112 0-.202-.707-.202-1.591s-.09-1.591-.201-1.591c-.111 0-.202-.596-.202-1.326 0-.729-.09-1.326-.201-1.326-.111 0-.202-.358-.202-.795 0-.438-.09-.796-.201-.796-.111 0-.202-.358-.202-.795 0-.438-.09-.796-.202-.796-.11 0-.201-.358-.201-.795 0-.438-.09-.796-.202-.796-.11 0-.201-.358-.201-.795 0-.438-.09-.796-.202-.796-.11 0-.201-.238-.201-.53 0-.292-.09-.53-.202-.53-.11 0-.201-.239-.201-.531 0-.291-.091-.53-.202-.53-.11 0-.201-.358-.201-.796 0-.437-.091-.795-.202-.795-.11 0-.201-.239-.201-.53 0-.292-.091-.531-.202-.531-.11 0-.202-.238-.202-.53 0-.292-.09-.53-.201-.53-.111 0-.202-.239-.202-.531 0-.292-.09-.53-.201-.53-.111 0-.202-.306-.202-.68 0-.468.316-1.085 1.008-1.972.554-.71 1.008-1.428 1.008-1.594 0-.167.362-.762.806-1.323.443-.56.806-1.181.806-1.379 0-.198.181-.532.403-.742.222-.21.403-.595.403-.854 0-.26.091-.472.202-.472.11 0 .201-.239.201-.53 0-.292.091-.531.202-.531.11 0 .202-.238.202-.53 0-.292.09-.53.201-.53.11 0 .202-.239.202-.531 0-.291.09-.53.201-.53.111 0 .202-.239.202-.53 0-.292.09-.531.201-.531.111 0 .202-.238.202-.53 0-.292.09-.531.201-.531.111 0 .202-.238.202-.53 0-.292.09-.53.201-.53.111 0 .202-.358.202-.796 0-.437.09-.795.202-.795.11 0 .201-.358.201-.796 0-.437.09-.795.202-.795.11 0 .201-.478.201-1.061s.09-1.061.202-1.061c.11 0 .201-.358.201-.795 0-.438.091-.796.202-.796.11 0 .201-.596.201-1.326 0-.729.091-1.325.202-1.325.11 0 .202-.358.202-.796 0-.619.089-.795.403-.795.221 0 .403-.12.403-.266 0-.145.272-.265.604-.265.333 0 .605-.119.605-.265 0-.146.272-.265.605-.265.332 0 .604-.119.604-.265 0-.146.182-.265.403-.265.222 0 .404-.12.404-.266 0-.146.16-.265.358-.265.197 0 .49-.238.65-.53.16-.292.408-.531.551-.531.341 0 2.875-3.333 2.875-3.781 0-.189.181-.516.403-.726.236-.225.403-.687.403-1.12 0-.405.09-.737.201-.737.111 0 .202-.358.202-.795 0-.438.09-.796.201-.796.123 0 .202-1.149.202-2.917 0-1.768-.08-2.917-.202-2.917-.11 0-.201-.238-.201-.53 0-.292-.09-.53-.202-.53-.11 0-.201-.239-.201-.531 0-.291-.09-.53-.202-.53-.11 0-.201-.182-.201-.405 0-.526-1.711-2.777-2.111-2.777-.17 0-.308-.119-.308-.265 0-.146-.181-.265-.403-.265-.222 0-.403-.12-.403-.265 0-.146-.272-.266-.605-.266-.332 0-.604-.119-.604-.265 0-.146-.454-.265-1.008-.265s-1.008-.119-1.008-.265c0-.152-.605-.265-1.41-.265h-1.412v-1.326c0-.729-.09-1.326-.201-1.326-.111 0-.202-.477-.202-1.061 0-.583-.09-1.06-.201-1.06-.111 0-.202-.478-.202-1.061 0-.584-.09-1.061-.201-1.061-.111 0-.202-.358-.202-.795 0-.438-.09-.796-.202-.796-.11 0-.201-.477-.201-1.061 0-.583-.09-1.06-.202-1.06-.11 0-.201-.358-.201-.796 0-.437-.09-.795-.202-.795-.11 0-.201-.239-.201-.531 0-.291-.09-.53-.202-.53-.11 0-.201-.358-.201-.796 0-.437-.091-.795-.202-.795-.11 0-.201-.239-.201-.53 0-.292-.091-.531-.202-.531-.11 0-.202-.358-.202-.795 0-.438-.09-.796-.201-.796-.11 0-.202-.238-.202-.53 0-.292-.09-.53-.201-.53-.111 0-.202-.239-.202-.531 0-.291-.09-.53-.201-.53-.111 0-.202-.239-.202-.53 0-.292-.09-.531-.201-.531-.111 0-.202-.238-.202-.53 0-.292-.09-.531-.202-.531-.11 0-.201-.238-.201-.53 0-.292-.09-.53-.202-.53-.11 0-.201-.213-.201-.472 0-.26-.181-.644-.403-.854-.222-.21-.403-.595-.403-.854 0-.26-.091-.472-.202-.472-.11 0-.201-.212-.201-.472 0-.259-.182-.644-.404-.854-.221-.21-.403-.547-.403-.748 0-.2-.272-.699-.604-1.108-.333-.409-.605-.886-.605-1.061 0-.174-.272-.652-.605-1.06-.332-.409-.604-.877-.604-1.041 0-.379-2.137-3.202-2.424-3.202-.41 0-1.204-1.305-1.204-1.977 0-.371.09-.675.201-.675.126 0 .202-1.591.202-4.243 0-2.651.076-4.242.201-4.242.111 0 .202.358.202.795 0 .438.09.796.202.796.11 0 .201.238.201.53 0 .292.09.53.202.53.11 0 .201.213.201.472 0 .26.182.644.403.854.222.21.404.539.404.73 0 .453 1.318 2.187 1.661 2.187.146 0 .396.239.556.53.16.292.451.531.649.531.197 0 .358.119.358.265 0 .146.182.265.403.265.222 0 .404.119.404.265 0 .146.272.265.604.265.333 0 .605.12.605.266 0 .145.453.265 1.008.265.554 0 1.007.119 1.007.265 0 .146.363.265.806.265.444 0 .807-.119.807-.265 0-.146.453-.265 1.007-.265.555 0 1.008-.12 1.008-.265 0-.146.272-.266.605-.266.332 0 .605-.119.605-.265 0-.146.18-.265.403-.265.221 0 .403-.119.403-.265 0-.146.161-.265.358-.265.198 0 .49-.239.65-.531.16-.291.408-.53.551-.53.341 0 2.875-3.333 2.875-3.782 0-.189.181-.516.403-.726.222-.21.403-.594.403-.854 0-.259.09-.472.202-.472.11 0 .201-.238.201-.53 0-.292.09-.53.202-.53.11 0 .201-.358.201-.796 0-.437.09-.795.202-.795.11 0 .201-.358.201-.796 0-.438.091-.795.202-.795.126 0 .201-1.592.201-4.243 0-2.652-.075-4.243-.201-4.243-.111 0-.202-.358-.202-.796 0-.437-.09-.795-.201-.795-.111 0-.202-.358-.202-.796 0-.437-.09-.795-.201-.795-.111 0-.202-.213-.202-.472s-.181-.644-.403-.854c-.222-.21-.403-.568-.403-.795 0-.228-.181-.586-.403-.796-.222-.21-.403-.537-.403-.726 0-.448-2.938-4.312-3.278-4.312-.144 0-.392-.239-.552-.531-.16-.291-.432-.53-.604-.53-.173 0-.445-.239-.605-.53-.16-.292-.452-.531-.65-.531-.196 0-.358-.119-.358-.265 0-.146-.272-.265-.605-.265-.332 0-.604-.119-.604-.265 0-.146-.181-.265-.403-.265-.222 0-.403-.12-.403-.266 0-.145-.272-.265-.605-.265-.333 0-.605-.119-.605-.265 0-.146-.453-.265-1.007-.265-.555 0-1.008-.119-1.008-.265 0-.165-1.142-.265-3.023-.265-1.882 0-3.024.1-3.024.265 0 .146-.362.265-.806.265-.443 0-.806.119-.806.265 0 .146-.363.265-.806.265-.444 0-.806.12-.806.265 0 .146-.182.266-.404.266-.221 0-.403.119-.403.265 0 .146-.181.265-.403.265-.222 0-.403.119-.403.265 0 .146-.181.265-.403.265-.222 0-.403.12-.403.266 0 .145-.181.265-.403.265-.222 0-.403.119-.403.265 0 .394-.591.321-.922-.114-.158-.208-.288-.685-.288-1.061 0-.375-.09-.681-.201-.681-.111 0-.202-.239-.202-.531 0-.291-.09-.53-.201-.53-.111 0-.202-.358-.202-.796 0-.437-.09-.795-.201-.795-.111 0-.202-.239-.202-.53 0-.292-.09-.531-.201-.531-.111 0-.202-.358-.202-.795 0-.438-.09-.796-.202-.796-.11 0-.201-.358-.201-.795 0-.438-.09-.796-.202-.796-.11 0-.201-.358-.201-.795 0-.438-.09-.796-.202-.796-.11 0-.201-.477-.201-1.061 0-.583-.091-1.06-.202-1.06-.11 0-.201-.478-.201-1.061s-.091-1.061-.202-1.061c-.127 0-.201-1.768-.201-4.773s.074-4.773.201-4.773c.11 0 .202-.477.202-1.061 0-.583.09-1.06.201-1.06.111 0 .202-.358.202-.796 0-.437.09-.795.201-.795.111 0 .202-.239.202-.531 0-.291.09-.53.201-.53.111 0 .202-.239.202-.53 0-.292.09-.531.201-.531.111 0 .202-.181.202-.402 0-.49 2.508-3.84 2.874-3.84.144 0 .393-.239.552-.531.16-.291.452-.53.65-.53.197 0 .358-.119.358-.265 0-.146.272-.265.605-.265.332 0 .604-.12.604-.266 0-.16.874-.265 2.218-.265 1.343 0 2.217.105 2.217.265 0 .146.181.266.403.266.221 0 .403.119.403.265 0 .146.161.265.358.265.198 0 .49.239.65.53.16.292.451.531.649.531.197 0 .358.19.358.424 0 .233.272.758.605 1.167.372.457.605 1.008.605 1.432 0 .379.09.689.201.689.121 0 .202 1.061.202 2.652 0 1.591-.081 2.651-.202 2.651-.11 0-.201.239-.201.531 0 .291-.091.53-.202.53-.11 0-.201.188-.201.417 0 .511-.48 1.174-.849 1.174-.15 0-.403.239-.562.531-.171.311-.522.53-.851.53-.308 0-.56.119-.56.265 0 .147-.538.265-1.21.265-.671 0-1.209-.118-1.209-.265 0-.146-.272-.265-.605-.265-.332 0-.604-.068-.604-.152 0-.265.567-.909.8-.909.336 0 1.215-1.239 1.215-1.711 0-.226.091-.41.202-.41.11 0 .201-.478.201-1.061s-.09-1.061-.201-1.061c-.11 0-.202-.184-.202-.409 0-.531-.897-1.712-1.3-1.712-.172 0-.312-.119-.312-.265 0-.146-.41-.265-.912-.265-.812 0-1.012.13-1.814 1.186-.884 1.163-.902 1.221-.902 2.917 0 .977.088 1.73.202 1.73.11 0 .201.358.201.796 0 .438.09.796.202.796.11 0 .201.182.201.404 0 .527 1.711 2.778 2.111 2.778.17 0 .308.119.308.265 0 .146.181.265.403.265.222 0 .403.119.403.265 0 .161.873.265 2.217.265s2.217-.104 2.217-.265c0-.146.252-.265.56-.265.33 0 .68-.219.851-.53.16-.292.409-.531.553-.531.367 0 2.47-2.817 2.47-3.309 0-.222.091-.403.202-.403.11 0 .201-.358.201-.796 0-.437.091-.795.202-.795.11 0 .202-.597.202-1.326 0-.729.09-1.326.201-1.326.11 0 .202-.477.202-1.061 0-.583-.091-1.06-.202-1.06-.11 0-.202-.597-.202-1.326 0-.729-.09-1.326-.201-1.326-.11 0-.202-.358-.202-.796 0-.437-.09-.795-.201-.795-.111 0-.202-.212-.202-.472 0-.259-.181-.644-.403-.854-.221-.21-.403-.537-.403-.727 0-.449-2.129-3.251-2.47-3.251-.145 0-.393-.238-.553-.53-.16-.292-.452-.53-.65-.53-.197 0-.358-.12-.358-.265 0-.146-.272-.266-.605-.266-.332 0-.604-.119-.604-.265 0-.151-.605-.265-1.411-.265-.776 0-1.41-.064-1.41-.141 0-.399 1.454-1.98 1.82-1.98.234 0 .56-.177.723-.393.264-.347.216-.502-.41-1.326-.64-.842-.818-.933-1.825-.933-.613 0-1.115.119-1.115.265 0 .146-.14.265-.312.265-.49 0-1.3 1.233-1.3 1.977 0 .371-.091.675-.202.675-.111 0-.202.184-.202.41 0 .382-.854 1.711-1.1 1.711-.06 0-.109-.954-.109-2.121 0-1.238-.084-2.121-.201-2.121-.111 0-.202-.358-.202-.796 0-.437-.09-.795-.202-.795-.133 0-.201-26.871-.201-80.083 0-79.905 0-80.082.403-80.082.222 0 .403-.119.403-.265 0-.146.181-.265.403-.265.222 0 .403-.12.403-.265 0-.146.182-.265.403-.265.253 0 .403-.177.403-.472 0-.26.182-.644.404-.854.221-.21.403-.537.403-.726 0-.482 2.95-4.313 3.322-4.313.168 0 .306-.119.306-.265 0-.146.18-.265.403-.265.547 0 .514-.137-.296-1.202-.644-.847-.794-.92-1.924-.92-1.032 0-1.303.103-1.72.652-.272.358-.495.835-.495 1.06 0 .226-.09.41-.201.41-.11 0-.202.239-.202.53 0 .292-.09.53-.201.53-.111 0-.202.24-.202.531 0 .292-.09.53-.201.53-.111 0-.202.358-.202.796 0 .438-.09.795-.201.795-.111 0-.202.188-.202.417 0 .525-.576 1.306-.765 1.037-.078-.11-.028-.254.11-.319.315-.148.364-5.908.05-5.908-.11 0-.201-.358-.201-.795 0-.438-.09-.796-.202-.796-.11 0-.201-.238-.201-.53 0-.292-.09-.53-.202-.53-.11 0-.201-.239-.201-.53 0-.292-.091-.531-.202-.531-.11 0-.201-.358-.201-.796 0-.437-.052-.795-.116-.795-.294 0-.69.825-.69 1.44 0 .375-.091.681-.202.681-.111 0-.202.239-.202.53 0 .292-.09.531-.201.531-.111 0-.202.239-.202.53 0 .292-.09.53-.201.53-.111 0-.202.359-.202.796 0 .438-.09.796-.201.796-.118 0-.202.884-.202 2.121 0 1.238.084 2.121.202 2.121.11 0 .201.358.201.796 0 .438-.09.796-.201.796-.111 0-.202-.24-.202-.53 0-.293-.09-.531-.202-.531-.11 0-.201-.239-.201-.53 0-.292-.09-.53-.202-.53-.11 0-.201-.359-.201-.796 0-.438-.09-.796-.202-.796-.11 0-.201-.239-.201-.53 0-.292-.091-.53-.202-.53-.11 0-.201-.183-.201-.407 0-.224-.315-.82-.7-1.326-.643-.847-.794-.92-1.92-.92-1.127 0-1.278.073-1.922.92-.81 1.065-.843 1.202-.296 1.202.222 0 .403.12.403.265 0 .146.162.265.36.265.196 0 .488.24.648.53.16.292.411.531.558.531.327 0 1.256 1.187 1.256 1.605 0 .167.272.638.605 1.047.332.409.605.878.605 1.043 0 .447 1.35 2.139 1.706 2.139.17 0 .309.12.309.265 0 .146.181.265.403.265.402 0 .403.177.403 80.348 0 53.388-.067 80.347-.201 80.347-.111 0-.202.358-.202.796 0 .437-.09.795-.201.795-.118 0-.202.884-.202 2.121 0 1.238.084 2.122.202 2.122.11 0 .201.358.201.795 0 .438-.09.796-.201.796-.111 0-.202-.239-.202-.531 0-.291-.09-.53-.202-.53-.11 0-.201-.239-.201-.53 0-.292-.09-.531-.202-.531-.11 0-.201-.358-.201-.795 0-.438-.09-.796-.202-.796-.11 0-.201-.238-.201-.53 0-.292-.091-.53-.202-.53-.11 0-.201-.183-.201-.407 0-.224-.315-.82-.7-1.326-.643-.847-.794-.919-1.92-.919-1.127 0-1.278.072-1.922.919-.81 1.066-.843 1.202-.296 1.202.222 0 .403.12.403.266 0 .145.162.265.36.265.196 0 .488.238.648.53.16.292.411.53.558.53.327 0 1.256 1.188 1.256 1.605 0 .168.272.638.605 1.047.332.409.605.886.605 1.061 0 .175.28.661.622 1.082l.622.764-1.026 1.314c-.563.722-1.025 1.474-1.025 1.67 0 .196-.181.528-.403.738-.221.211-.403.595-.403.855 0 .259-.09.471-.201.471-.111 0-.202.358-.202.796 0 .437-.09.795-.201.795-.111 0-.202.239-.202.531 0 .291-.09.53-.202.53-.11 0-.201.477-.201 1.061 0 .583-.09 1.06-.202 1.06-.11 0-.201.478-.201 1.061s-.091 1.061-.202 1.061c-.127 0-.201 1.768-.201 4.773s.074 4.773.201 4.773c.111 0 .202.597.202 1.326 0 .729.09 1.326.201 1.326.111 0 .202.358.202.795 0 .438.09.796.201.796.111 0 .202.477.202 1.06 0 .584.09 1.061.201 1.061.111 0 .202.358.202.796 0 .437.09.795.202.795.11 0 .201.239.201.531 0 .291.09.53.202.53.11 0 .201.358.201.795 0 .438.09.796.202.796.11 0 .201.239.201.53 0 .292.091.531.202.531.11 0 .201.358.201.795 0 .438.091.796.202.796.11 0 .202.238.202.53 0 .292.09.53.201.53.11 0 .202.239.202.531 0 .291.09.53.201.53.111 0 .202.358.202.796 0 .437.09.795.201.795.111 0 .202.229.202.508 0 .28.112.558.25.618.147.065-.186.669-.806 1.463-.581.745-1.057 1.493-1.057 1.663 0 .17-.272.643-.604 1.052-.333.408-.605.885-.605 1.06 0 .175-.272.652-.605 1.061-.332.409-.604.934-.604 1.167 0 .233-.09.424-.202.424-.11 0-.201.239-.201.53 0 .292-.091.531-.202.531-.11 0-.201.212-.201.471 0 .26-.182.644-.404.855-.236.224-.403.686-.403 1.119 0 .405-.09.737-.201.737-.111 0-.202.238-.202.53 0 .292-.09.53-.201.53-.111 0-.202.239-.202.531 0 .291-.09.53-.201.53-.111 0-.202.358-.202.796 0 .437-.09.795-.201.795-.111 0-.202.358-.202.796 0 .437-.09.795-.201.795-.111 0-.202.358-.202.796 0 .437-.09.795-.202.795-.11 0-.201.478-.201 1.061s-.09 1.061-.202 1.061c-.11 0-.201.477-.201 1.06 0 .584-.091 1.061-.202 1.061-.11 0-.201.426-.201.947 0 1.003-.368 1.705-.893 1.705-.174 0-.317.119-.317.265 0 .146-.272.265-.604.265-.333 0-.605.119-.605.265 0 .146-.272.265-.605.265-.332 0-.604.12-.604.266 0 .145-.182.265-.403.265-.222 0-.404.119-.404.265 0 .146-.16.265-.358.265-.197 0-.49.239-.65.53-.16.292-.408.531-.552.531-.342 0-2.47 2.801-2.47 3.25 0 .19-.182.517-.404.727-.221.211-.403.595-.403.854 0 .26-.09.472-.201.472-.111 0-.202.358-.202.796 0 .437-.09.795-.201.795-.111 0-.202.597-.202 1.326 0 .729-.09 1.326-.201 1.326-.111 0-.202.477-.202 1.061 0 .583.09 1.06.202 1.06zm2.015-2.651c.11 0 .202-.478.202-1.061s.09-1.061.201-1.061c.111 0 .202-.238.202-.53 0-.292.09-.53.201-.53.111 0 .202-.182.202-.404 0-.491 2.103-3.309 2.47-3.309.145 0 .393-.239.553-.53.16-.292.452-.531.65-.531.196 0 .358-.119.358-.265 0-.146.181-.265.403-.265.222 0 .403-.119.403-.265 0-.146.272-.265.605-.265.332 0 .604-.12.604-.265 0-.146.182-.266.403-.266.314 0 .404.177.404.796 0 .437-.091.795-.202.795-.129 0-.202 2.299-.202 6.365 0 4.066.073 6.364.202 6.364.12 0 .202.972.202 2.386v2.387h-.605c-.333 0-.605-.119-.605-.265 0-.148-.537-.265-1.21-.265-.67 0-1.208-.118-1.208-.266 0-.145-.272-.265-.605-.265-.333 0-.605-.119-.605-.265 0-.146-.138-.265-.306-.265-.17 0-.804-.654-1.411-1.453-.92-1.21-1.104-1.609-1.104-2.386 0-.514-.091-.934-.202-.934-.112 0-.202-.707-.202-1.591s.09-1.591.202-1.591zm3.225 62.05c.11 0 .201-.477.201-1.061 0-.583.091-1.06.202-1.06.11 0 .202-.239.202-.531 0-.291.09-.53.201-.53.11 0 .202-.239.202-.53 0-.292.09-.531.201-.531.111 0 .202-.181.202-.402 0-.524 2.924-4.371 3.322-4.371.168 0 .306-.119.306-.265 0-.146.181-.265.403-.265.221 0 .403-.119.403-.265 0-.146.181-.265.403-.265.222 0 .403-.12.403-.266 0-.146.454-.265 1.008-.265s1.007-.119 1.007-.265c0-.146.363-.265.807-.265.443 0 .806.119.806.265 0 .146.363.265.806.265.444 0 .806.119.806.265 0 .146.272.266.605.266.332 0 .605.119.605.265 0 .146.137.265.306.265.372 0 2.918 3.299 2.918 3.781 0 .19.182.517.404.727.28.266.403.686.403 1.384 0 .551.09 1.002.201 1.002.111 0 .202.597.202 1.326 0 .729-.091 1.326-.202 1.326-.11 0-.201.477-.201 1.061 0 .884-.068 1.06-.404 1.06-.297 0-.403-.176-.403-.671 0-.747-1.198-2.511-1.706-2.511-.17 0-.31-.119-.31-.265 0-.15-.589-.265-1.365-.265-1.136 0-1.416.09-1.657.53-.16.292-.452.531-.65.531-.224 0-.358.198-.358.53 0 .292-.09.53-.202.53-.11 0-.201.239-.201.531 0 .291-.09.53-.202.53-.112 0-.201.707-.201 1.591s.09 1.591.201 1.591c.111 0 .202.183.202.407 0 .528 1.305 2.245 1.706 2.245.17 0 .31.119.31.265 0 .146.453.265 1.007.265.554 0 1.008-.119 1.008-.265 0-.146.228-.265.507-.265.362 0 .938-.567 2.015-1.985.83-1.091 1.509-2.165 1.509-2.386 0-.221.09-.402.201-.402.111 0 .202-.239.202-.531 0-.291.09-.53.201-.53.118 0 .202-.884.202-2.121 0-1.238.084-2.122.202-2.122.11 0 .201.597.201 1.326 0 .729.09 1.326.202 1.326.11 0 .201.597.201 1.326 0 .729.09 1.326.202 1.326.11 0 .201.477.201 1.06 0 .584.091 1.061.202 1.061.11 0 .201.358.201.796 0 .437.091.795.202.795.11 0 .202.358.202.796 0 .437.09.795.201.795.111 0 .202.358.202.796 0 .437.09.795.201.795.111 0 .202.239.202.531 0 .291.09.53.201.53.111 0 .202.358.202.795 0 .438.09.796.201.796.111 0 .202.358.202.796 0 .437.09.795.201.795.111 0 .202.239.202.53 0 .292.09.531.202.531.299 0 .244.778-.087 1.212-.158.208-.43.379-.605.379-.174 0-.316.119-.316.265 0 .146-.181.265-.403.265-.222 0-.403.119-.403.265 0 .146-.182.265-.403.265-.222 0-.404.12-.404.266 0 .145-.18.265-.403.265-.221 0-.403.119-.403.265 0 .146-.272.265-.604.265-.333 0-.605.119-.605.265 0 .146-.363.266-.806.266-.444 0-.806.119-.806.265 0 .162-.941.265-2.42.265-1.477 0-2.418-.103-2.418-.265 0-.146-.453-.265-1.007-.265-.555 0-1.008-.12-1.008-.266 0-.146-.272-.265-.605-.265-.332 0-.604-.119-.604-.265 0-.146-.273-.265-.605-.265-.333 0-.605-.12-.605-.265 0-.146-.161-.266-.358-.266-.198 0-.49-.238-.65-.53-.16-.292-.431-.53-.604-.53s-.445-.239-.605-.531c-.16-.291-.408-.53-.553-.53-.341 0-2.47-2.801-2.47-3.25 0-.19-.181-.517-.403-.728-.222-.21-.403-.568-.403-.795 0-.227-.182-.585-.403-.796-.237-.224-.404-.686-.404-1.119 0-.405-.09-.737-.201-.737-.11 0-.202-.358-.202-.795 0-.438-.09-.796-.201-.796-.123 0-.202-1.237-.202-3.182 0-1.944.079-3.182.202-3.182zm7.256-63.641c.125 0 .201-1.465.201-3.864 0-2.996.065-3.949.288-4.243.346-.455 4.953-.561 4.953-.114 0 .146.272.265.604.265.333 0 .605.12.605.266 0 .145.363.265.806.265.443 0 .806.119.806.265 0 .146.182.265.403.265.222 0 .403.119.403.265 0 .146.182.265.404.265.221 0 .403.12.403.266 0 .145.181.265.403.265.221 0 .403.119.403.265 0 .146.142.265.317.265.174 0 .446.171.604.379.327.43.393 1.743.087 1.743-.111 0-.202.358-.202.795 0 .438-.09.796-.201.796-.111 0-.202.238-.202.53 0 .292-.09.53-.202.53-.11 0-.201.213-.201.472 0 .26-.182.644-.403.854-.222.21-.403.544-.403.742 0 .198-.363.819-.807 1.38-.443.56-.806 1.156-.806 1.324 0 .393-.508 1.062-.807 1.062-.128 0-.58.477-1.007 1.061-.426.583-.897 1.06-1.048 1.06-.15 0-.404.239-.564.531-.16.292-.522.53-.806.53-.285 0-.646.238-.806.53-.171.312-.522.531-.851.531-.308 0-.56.119-.56.265 0 .146-.363.265-.807.265H12.9v-3.712c0-2.298-.077-3.713-.201-3.713-.111 0-.202-.596-.202-1.326 0-.729.09-1.325.202-1.325zm.892 13.107c.159-.209.521-.379.806-.379.285 0 .519-.119.519-.265 0-.146.272-.265.604-.265.333 0 .605-.12.605-.266 0-.145.181-.265.403-.265.222 0 .403-.119.403-.265 0-.146.182-.265.403-.265.222 0 .403-.119.403-.265 0-.146.182-.265.404-.265.221 0 .403-.12.403-.266 0-.145.161-.265.358-.265.198 0 .49-.238.65-.53.16-.292.407-.531.55-.531.34 0 4.085-4.927 4.085-5.374 0-.188.181-.514.403-.724.222-.211.403-.569.403-.796 0-.227.182-.585.403-.796.222-.21.403-.594.403-.854 0-.259.091-.471.202-.471.11 0 .201-.307.201-.682 0-.703.408-1.44.797-1.44.29 0 2.428 2.82 2.428 3.203 0 .163.273.631.605 1.04.333.409.605.908.605 1.108 0 .201.181.538.403.748.221.21.403.568.403.796 0 .227.181.585.403.795.222.211.403.595.403.854 0 .26.09.472.202.472.11 0 .201.239.201.53 0 .292.09.531.202.531.11 0 .201.238.201.53 0 .292.091.53.202.53.11 0 .201.239.201.531 0 .292.091.53.202.53.11 0 .202.213.202.472 0 .26.18.644.403.854.236.225.403.687.403 1.119 0 .406.09.737.201.737.111 0 .202.239.202.531 0 .291.09.53.201.53.111 0 .202.358.202.795 0 .438.09.796.201.796.111 0 .202.239.202.53 0 .292.09.531.202.531.11 0 .201.358.201.795 0 .438.09.796.202.796.11 0 .201.358.201.795 0 .438.09.796.202.796.11 0 .201.358.201.795 0 .438.091.796.202.796.11 0 .201.477.201 1.06 0 .584.091 1.061.202 1.061.11 0 .202.477.202 1.061 0 .583.09 1.061.201 1.061.11 0 .202.596.202 1.325 0 .73.09 1.326.201 1.326.314 0 .24 2.373-.086 2.803-.158.209-.521.379-.806.379-.285 0-.519.12-.519.266 0 .145-.272.265-.604.265-.333 0-.605.119-.605.265 0 .146-.181.265-.403.265-.222 0-.403.119-.403.265 0 .146-.182.265-.403.265-.222 0-.403.12-.403.266 0 .145-.182.265-.404.265-.221 0-.403.119-.403.265 0 .146-.161.265-.358.265-.197 0-.49.239-.65.53-.16.292-.407.531-.55.531-.34 0-3.682 4.396-3.682 4.843 0 .189-.181.515-.403.725-.222.211-.403.569-.403.796 0 .227-.181.585-.403.795-.222.211-.403.595-.403.855 0 .259-.091.471-.202.471-.11 0-.201.239-.201.531 0 .291-.091.53-.202.53-.11 0-.201.358-.201.795 0 .536-.1.796-.307.796-.352 0-2.515-2.754-2.515-3.202 0-.164-.272-.632-.605-1.041-.332-.408-.605-.907-.605-1.108 0-.201-.181-.538-.403-.748-.221-.21-.403-.568-.403-.795 0-.228-.181-.586-.403-.796-.222-.21-.403-.594-.403-.854 0-.259-.09-.472-.202-.472-.11 0-.201-.212-.201-.472 0-.259-.181-.643-.403-.854-.222-.21-.403-.594-.403-.854 0-.259-.091-.472-.202-.472-.11 0-.201-.238-.201-.53 0-.292-.091-.53-.202-.53-.11 0-.201-.239-.201-.531 0-.291-.091-.53-.202-.53-.11 0-.202-.239-.202-.53 0-.292-.09-.531-.201-.531-.111 0-.202-.358-.202-.795 0-.438-.09-.796-.201-.796-.111 0-.202-.238-.202-.53 0-.292-.09-.53-.201-.53-.111 0-.202-.358-.202-.796 0-.437-.09-.795-.201-.795-.111 0-.202-.239-.202-.531 0-.291-.09-.53-.201-.53-.111 0-.202-.358-.202-.796 0-.437-.09-.795-.202-.795-.11 0-.201-.358-.201-.796 0-.437-.09-.795-.202-.795-.11 0-.201-.358-.201-.796 0-.437-.091-.795-.202-.795-.11 0-.201-.597-.201-1.326 0-.729-.091-1.326-.202-1.326-.11 0-.202-.477-.202-1.061 0-.583-.09-1.06-.201-1.06-.11 0-.202-.597-.202-1.326 0-.729-.09-1.326-.201-1.326-.3 0-.244-.778.086-1.212zm.317-26.896c.11 0 .201-.358.201-.796 0-.437.091-.795.202-.795.11 0 .202-.478.202-1.061s.09-1.061.201-1.061c.111 0 .202-.358.202-.795 0-.438.09-.796.201-.796.111 0 .202-.358.202-.795 0-.438.09-.796.201-.796.111 0 .202-.239.202-.53 0-.292.09-.531.201-.531.111 0 .202-.238.202-.53 0-.292.09-.53.202-.53.11 0 .201-.239.201-.531 0-.291.09-.53.202-.53.11 0 .201-.239.201-.53 0-.292.09-.531.202-.531.11 0 .201-.212.201-.471 0-.26.182-.644.403-.854.222-.211.404-.569.404-.796 0-.227.18-.585.403-.796.221-.21.403-.537.403-.727 0-.323 2.084-3.25 2.313-3.25.058 0 .105.239.105.53 0 .292.091.531.202.531.11 0 .201.238.201.53 0 .292.091.53.202.53.11 0 .201.239.201.531 0 .291.091.53.202.53.11 0 .202.358.202.795 0 .438.09.796.201.796.111 0 .202.358.202.796 0 .437.09.795.201.795.111 0 .202.358.202.796 0 .437.09.795.201.795.111 0 .202.239.202.53 0 .292.09.531.201.531.111 0 .202.477.202 1.06 0 .584.09 1.061.202 1.061.11 0 .201.477.201 1.061 0 .583.09 1.061.202 1.061.115 0 .201.795.201 1.856 0 1.06.087 1.856.202 1.856.34 0 .259 6.061-.087 6.516-.33.434-.921.507-.921.113 0-.146-.181-.265-.403-.265-.222 0-.403-.119-.403-.265 0-.146-.182-.265-.403-.265-.222 0-.403-.12-.403-.265 0-.146-.273-.266-.605-.266-.333 0-.605-.119-.605-.265 0-.146-.272-.265-.604-.265-.333 0-.605-.119-.605-.265 0-.146-.454-.265-1.008-.265s-1.007-.12-1.007-.265c0-.161-.874-.266-2.218-.266h-2.217v-1.326c0-.729.091-1.325.202-1.325zm10.37-21.624c.273-.358.615-.651.762-.651.147 0 .398-.239.558-.53.17-.312.522-.531.85-.531.309 0 .56-.119.56-.265 0-.146.182-.265.404-.265.222 0 .403-.119.403-.265 0-.146.363-.265.806-.265.444 0 .806-.12.806-.265 0-.166 1.21-.266 3.225-.266 2.016 0 3.225.1 3.225.266 0 .145.363.265.806.265.444 0 .806.119.806.265 0 .146.273.265.605.265.333 0 .605.119.605.265 0 .146.181.265.403.265.221 0 .403.12.403.266 0 .145.181.265.403.265.222 0 .403.119.403.265 0 .146.145.265.322.265.178 0 .577.358.887.796.311.437.667.795.792.795.295 0 2.03 2.283 2.03 2.671 0 .164.272.633.605 1.042.332.408.604.934.604 1.167 0 .233.091.424.202.424.11 0 .201.238.201.53 0 .292.091.53.202.53.11 0 .202.358.202.796 0 .437.09.795.201.795.111 0 .202.597.202 1.326 0 .729.09 1.326.201 1.326.112 0 .202.707.202 1.591s-.09 1.591-.202 1.591c-.11 0-.201.597-.201 1.326 0 .729-.091 1.326-.202 1.326-.11 0-.201.358-.201.795 0 .438-.091.796-.202.796-.11 0-.202.239-.202.53 0 .292-.09.531-.201.531-.11 0-.202.18-.202.401 0 .524-3.328 4.902-3.725 4.902-.168 0-.306.119-.306.265 0 .146-.181.265-.403.265-.221 0-.403.12-.403.266 0 .145-.181.265-.403.265-.222 0-.403.119-.403.265 0 .162-.94.265-2.419.265-1.478 0-2.418-.103-2.418-.265 0-.146-.182-.265-.403-.265-.222 0-.403-.12-.403-.265 0-.146-.182-.266-.404-.266-.221 0-.403-.119-.403-.265 0-.146-.137-.265-.306-.265-.398 0-2.918-3.316-2.918-3.84 0-.222-.091-.403-.202-.403-.11 0-.201-.238-.201-.53 0-.292-.091-.53-.202-.53-.12 0-.202-.973-.202-2.387 0-2.21.03-2.387.404-2.387.227 0 .403.177.403.407 0 .224.314.82.698 1.326.527.694.87.919 1.394.919.383 0 .749.149.813.332.094.265.141.265.235 0 .065-.183.43-.332.812-.332.553 0 .877-.241 1.595-1.186.592-.779.902-1.416.902-1.856 0-.369.09-.67.202-.67.11 0 .201-.358.201-.796 0-.437-.09-.795-.201-.795-.111 0-.202-.302-.202-.67 0-.44-.31-1.077-.902-1.856l-.901-1.187h-3.243l-1.306 1.719c-.719.945-1.307 1.9-1.307 2.121 0 .222-.09.403-.201.403-.111 0-.202.239-.202.53 0 .292-.09.531-.201.531-.111 0-.202.358-.202.795 0 .438-.09.796-.201.796-.111 0-.202.358-.202.795 0 .438-.09.796-.202.796-.11 0-.201-.597-.201-1.326 0-.729-.09-1.326-.202-1.326-.11 0-.201-.477-.201-1.061 0-.583-.09-1.06-.202-1.06-.11 0-.201-.478-.201-1.061s-.091-1.061-.202-1.061c-.11 0-.201-.358-.201-.795 0-.438-.091-.796-.202-.796-.11 0-.202-.358-.202-.795 0-.438-.09-.796-.201-.796-.111 0-.202-.358-.202-.795 0-.438-.09-.796-.201-.796-.111 0-.202-.358-.202-.795 0-.438-.09-.796-.201-.796-.111 0-.202-.238-.202-.53 0-.292-.09-.53-.201-.53-.111 0-.202-.358-.202-.796 0-.438-.09-.796-.201-.796-.37 0-.208-.811.293-1.47zm3.09 87.386c.197 0 .489.239.648.531.171.311.522.53.851.53.308 0 .56.119.56.265 0 .146.182.266.404.266.221 0 .403.119.403.265 0 .146.272.265.604.265.333 0 .605.119.605.265 0 .146.272.265.605.265.332 0 .604.12.604.265 0 .148.538.266 1.21.266.671 0 1.209.117 1.209.265 0 .157.739.265 1.814.265h1.814v.795c0 .438-.091.796-.202.796-.11 0-.201.358-.201.795 0 .438-.091.796-.202.796-.11 0-.202.477-.202 1.061 0 .583-.09 1.06-.201 1.06-.11 0-.202.358-.202.796 0 .437-.09.795-.201.795-.111 0-.202.358-.202.796 0 .437-.09.795-.201.795-.111 0-.202.239-.202.531 0 .291-.09.53-.201.53-.111 0-.202.358-.202.796 0 .437-.09.795-.202.795-.11 0-.201.239-.201.53 0 .292-.09.531-.202.531-.11 0-.201.238-.201.53 0 .292-.09.531-.202.531-.11 0-.201.212-.201.471 0 .26-.182.644-.403.854-.222.211-.403.569-.403.796 0 .227-.182.585-.404.795-.221.211-.403.545-.403.743 0 .198-.362.818-.806 1.379-.443.56-.806 1.156-.806 1.324 0 .167-.136.484-.302.703-.269.353-.336.353-.605 0-.166-.219-.302-.586-.302-.815 0-.229-.091-.417-.202-.417-.11 0-.201-.358-.201-.795 0-.438-.091-.796-.202-.796-.11 0-.201-.238-.201-.53 0-.292-.091-.53-.202-.53-.11 0-.202-.358-.202-.796 0-.437-.09-.795-.201-.795-.111 0-.202-.358-.202-.796 0-.437-.09-.795-.201-.795-.111 0-.202-.358-.202-.796 0-.438-.09-.796-.201-.796-.111 0-.202-.357-.202-.795 0-.438-.09-.796-.201-.796-.111 0-.202-.477-.202-1.06 0-.584-.09-1.061-.202-1.061-.11 0-.201-.597-.201-1.326 0-.729-.09-1.326-.202-1.326-.126 0-.201-1.679-.201-4.508 0-4.144.029-4.508.358-4.508zm.648-4.773c.111 0 .202-.358.202-.795 0-.438.09-.796.202-.796.11 0 .201-.238.201-.53 0-.292.09-.53.202-.53.11 0 .201-.213.201-.472 0-.26.182-.644.403-.854.222-.211.404-.537.404-.725 0-.447 3.745-5.374 4.084-5.374.143 0 .391-.239.551-.531.16-.291.452-.53.65-.53.196 0 .358-.119.358-.265 0-.146.181-.265.403-.265.222 0 .403-.12.403-.265 0-.146.272-.266.605-.266.332 0 .604-.119.604-.265 0-.146.273-.265.605-.265.333 0 .605-.119.605-.265 0-.146.09-.265.201-.265.111 0 .202.358.202.795 0 .438.09.796.201.796.13 0 .202 2.651.202 7.425 0 4.773-.072 7.424-.202 7.424-.11 0-.201.597-.201 1.326v1.326h-2.016c-1.209 0-2.015-.106-2.015-.265 0-.146-.454-.265-1.008-.265s-1.008-.12-1.008-.265c0-.146-.272-.266-.604-.266-.333 0-.605-.119-.605-.265 0-.146-.272-.265-.605-.265-.332 0-.604-.119-.604-.265 0-.146-.182-.265-.403-.265-.222 0-.404-.12-.404-.265 0-.146-.18-.266-.403-.266-.221 0-.403-.119-.403-.265 0-.146-.14-.265-.31-.265-.171 0-.44-.149-.598-.331-.324-.376-.408-2.321-.1-2.321zm15.52-13.789c.94 0 1.612.111 1.612.266 0 .145.272.265.605.265.332 0 .605.119.605.265 0 .146.181.265.403.265.221 0 .403.119.403.265 0 .146.138.265.307.265.4 0 2.111 2.251 2.111 2.778 0 .222.091.404.202.404.123 0 .201 1.238.201 3.183 0 1.944-.078 3.182-.201 3.182-.11 0-.202.238-.202.53 0 .292-.09.53-.201.53-.111 0-.202.181-.202.403 0 .49-2.507 3.84-2.874 3.84-.144 0-.392.239-.552.53-.16.292-.452.531-.65.531-.196 0-.358.119-.358.265 0 .146-.272.265-.605.265-.332 0-.604.119-.604.265 0 .146-.272.265-.605.265h-.604v-8.75c0-5.657-.072-8.751-.202-8.751-.11 0-.202-.239-.202-.53 0-.486.135-.531 1.613-.531z" fill="#fff"/></svg>