<svg width="70" height="582" viewBox="0 0 70 582" fill="none" xmlns="http://www.w3.org/2000/svg"><path fill-rule="evenodd" clip-rule="evenodd" d="M.271 271.165c.15 0 .272.612.272 1.359s.122 1.358.27 1.358c.15 0 .272.245.272.544 0 .299.122.543.272.543.149 0 .27.187.27.415 0 .539 2.304 2.846 2.843 2.846.227 0 .414.122.414.271 0 .15.244.272.542.272.299 0 .543.122.543.272 0 .149.244.271.543.271.298 0 .542.123.542.272 0 .15.367.272.814.272.448 0 .814.122.814.272 0 .163 1.085.271 2.713.271 2.533 0 2.713.036 2.713.544 0 .299.123.543.272.543.15 0 .271.612.271 1.359s.122 1.358.271 1.358c.15 0 .272.489.272 1.087s.122 1.087.271 1.087c.15 0 .271.489.271 1.087s.122 1.087.272 1.087c.149 0 .271.366.271.815 0 .448.122.815.271.815.15 0 .272.367.272.815 0 .448.122.815.271.815.15 0 .271.489.271 1.087s.122 1.087.272 1.087c.149 0 .271.244.271.543 0 .299.122.544.271.544.15 0 .272.366.272.815 0 .448.122.815.27.815.15 0 .272.244.272.543 0 .299.122.544.272.544.149 0 .27.244.27.543 0 .299.123.544.272.544.15 0 .271.244.271.543 0 .299.123.543.272.543.15 0 .271.367.271.815 0 .449.122.816.271.816.15 0 .272.217.272.483s.244.66.542.875c.299.216.543.609.543.875s.122.484.271.484c.15 0 .272.244.272.543 0 .299.122.544.271.544.15 0 .271.217.271.483s.245.66.543.875c.298.216.543.582.543.815 0 .233.244.6.542.815.299.216.543.583.543.815 0 .233.244.6.543.816.298.215.542.557.542.76 0 .203.489.839 1.085 1.413.597.575 1.086 1.179 1.086 1.343 0 .385 2.88 3.276 3.262 3.276.484 0 1.782 1.441 1.41 1.565-.211.071-.331.694-.331 1.718 0 .891-.121 1.608-.271 1.608-.161 0-.272.996-.272 2.445 0 1.449-.11 2.446-.271 2.446-.15 0-.271-.245-.271-.544 0-.298-.123-.543-.272-.543-.149 0-.271-.218-.271-.483 0-.266-.244-.66-.543-.876-.298-.215-.542-.551-.542-.746 0-.462-2.321-2.786-2.782-2.786-.195 0-.53-.244-.746-.543-.215-.299-.608-.544-.873-.544-.266 0-.483-.122-.483-.271 0-.15-.366-.272-.814-.272-.448 0-.814-.122-.814-.272 0-.149-.488-.271-1.085-.271s-1.086-.123-1.086-.272c0-.161-.994-.272-2.441-.272-1.447 0-2.442.111-2.442.272 0 .149-.489.272-1.086.272-.597 0-1.085.122-1.085.271 0 .15-.244.272-.543.272-.298 0-.542.122-.542.272 0 .149-.244.271-.543.271-.298 0-.542.123-.542.272 0 .15-.218.272-.483.272-.266 0-.659.244-.874.543-.215.299-.55.544-.745.544-.433 0-2.782 2.311-2.782 2.736 0 .168-.366.649-.814 1.068-.448.418-.814.957-.814 1.195 0 .239-.122.435-.271.435-.15 0-.272.244-.272.543 0 .299-.122.544-.271.544-.15 0-.271.244-.271.543 0 .299-.122.544-.272.544-.149 0-.27.366-.27.815 0 .448-.123.815-.272.815-.15 0-.272.611-.272 1.358 0 .747-.122 1.359-.27 1.359-.164 0-.272 1.087-.272 2.717 0 1.63.108 2.717.271 2.717.15 0 .271.489.271 1.087s.123 1.087.272 1.087c.149 0 .271.366.271.815 0 .448.122.815.271.815.15 0 .272.244.272.543 0 .299.122.544.271.544.15 0 .271.244.271.543 0 .299.122.544.272.544.149 0 .271.217.271.483s.244.66.543.875c.298.216.542.55.542.743 0 .459 4.498 4.963 4.956 4.963.193 0 .527.245.742.543.215.299.608.544.874.544.265 0 .482.122.482.272 0 .149.245.271.543.271.299 0 .543.123.543.272 0 .149.244.272.542.272.299 0 .543.122.543.271 0 .15.244.272.543.272.298 0 .542.122.542.272 0 .149.367.272.814.272.448 0 .814.122.814.271 0 .15.366.272.814.272.448 0 .814.122.814.272 0 .155.814.271 1.9.271 1.085 0 1.899.117 1.899.272 0 .158.904.272 2.17.272s2.17-.114 2.17-.272c0-.155.815-.272 1.9-.272s1.9-.116 1.9-.271c0-.15.365-.272.813-.272.448 0 .814-.122.814-.272 0-.149.366-.271.814-.271.448 0 .814-.123.814-.272 0-.15.244-.272.543-.272.298 0 .542-.122.542-.272 0-.149.244-.271.543-.271.298 0 .542-.123.542-.272 0-.149.245-.272.543-.272.299 0 .543-.122.543-.271 0-.15.244-.272.542-.272.299 0 .543-.122.543-.272 0-.149.122-.272.271-.272.15 0 .272.367.272.816 0 .448.122.815.271.815.15 0 .271.244.271.543 0 .299.122.544.272.544.149 0 .271.366.271.815 0 .448.122.815.271.815.15 0 .272.244.272.543 0 .299.122.544.27.544.15 0 .272.366.272.815 0 .448.122.815.271.815.15 0 .272.367.272.815 0 .448.122.815.271.815.15 0 .271.367.271.815 0 .449.123.815.272.815.149 0 .271.367.271.816 0 .448.122.815.271.815.15 0 .272.489.272 1.086 0 .598.122 1.087.271 1.087.15 0 .271.725.271 1.631 0 .905.12 1.63.272 1.63.166 0 .271 1.268.271 3.26 0 1.993-.105 3.261-.271 3.261-.15 0-.272.611-.272 1.358 0 .748-.122 1.359-.27 1.359-.15 0-.272.367-.272.815 0 .448-.122.815-.272.815-.149 0-.27.367-.27.815 0 .449-.123.815-.272.815-.15 0-.272.245-.272.544 0 .299-.122.543-.27.543-.15 0-.272.185-.272.412 0 .536-4.48 5.022-5.016 5.022-.226 0-.41.123-.41.272 0 .15-.245.272-.543.272-.299 0-.543.122-.543.272 0 .149-.366.271-.814.271-.447 0-.814.123-.814.272 0 .161-.995.272-2.441.272-1.447 0-2.442-.111-2.442-.272 0-.149-.367-.272-.814-.272-.448 0-.814-.122-.814-.271 0-.15-.195-.272-.434-.272s-.776-.367-1.194-.815c-.418-.449-.956-.815-1.194-.815-.239 0-.434-.218-.434-.484s-.244-.66-.543-.875c-.298-.215-.542-.609-.542-.875s-.122-.484-.272-.484c-.149 0-.271-.366-.271-.815 0-.448-.122-.815-.271-.815-.155 0-.272-.815-.272-1.902s.117-1.902.272-1.902c.149 0 .271-.244.271-.543 0-.299.122-.544.271-.544.15 0 .272-.186.272-.414 0-.539 2.303-2.846 2.841-2.846.228 0 .414-.122.414-.272 0-.161.995-.271 2.442-.271 2.784 0 3.068.283 1.628 1.63-.447.419-.814.957-.814 1.196s-.122.434-.271.434c-.15 0-.271.489-.271 1.087s.122 1.087.27 1.087c.15 0 .272.189.272.42 0 .543 1.209 1.753 1.752 1.753.23 0 .419.123.419.272 0 .15.488.272 1.085.272s1.085-.122 1.085-.272c0-.149.189-.272.42-.272.542 0 1.75-1.21 1.75-1.753 0-.231.123-.42.272-.42.155 0 .271-.815.271-1.902s-.116-1.902-.27-1.902c-.15 0-.272-.245-.272-.544 0-.298-.122-.543-.272-.543-.149 0-.27-.189-.27-.42 0-.513-1.197-1.754-1.692-1.754-.198 0-.535-.244-.75-.543-.216-.299-.609-.544-.874-.544-.266 0-.483-.122-.483-.271 0-.15-.489-.272-1.085-.272-.597 0-1.086-.122-1.086-.272 0-.151-.723-.271-1.628-.271-.904 0-1.628.12-1.628.271 0 .15-.488.272-1.085.272s-1.085.122-1.085.272c0 .149-.244.271-.543.271-.298 0-.542.123-.542.272 0 .15-.186.272-.413.272-.538 0-3.386 2.852-3.386 3.39 0 .228-.122.414-.271.414-.15 0-.271.244-.271.543 0 .299-.123.544-.272.544-.149 0-.271.489-.271 1.086 0 .598-.122 1.087-.271 1.087-.161 0-.272.997-.272 2.446 0 1.449.11 2.445.272 2.445.149 0 .27.489.27 1.087s.123 1.087.272 1.087c.15 0 .271.244.271.543 0 .299.123.544.272.544.15 0 .271.244.271.543 0 .299.122.543.271.543.15 0 .272.186.272.413 0 .537 3.392 3.935 3.929 3.935.593 0 .507.898-.13 1.358-.3.216-.543.583-.543.815 0 .233-.245.6-.543.816-.299.215-.543.551-.543.746 0 .462-2.32 2.786-2.781 2.786-.195 0-.53.244-.746.543-.23.319-.702.544-1.145.544-.415 0-.754.065-.754.144 0 .337 1.916 2.029 2.297 2.029.229 0 .416.123.416.272 0 .149.366.272.814.272.448 0 .814-.123.814-.272 0-.149.186-.272.414-.272.7 0 2.842-2.35 2.842-3.117 0-.378.122-.687.271-.687.15 0 .272-.244.272-.543 0-.299.122-.543.27-.543.15 0 .272-.367.272-.816 0-.448.122-.815.271-.815.15 0 .272-.244.272-.543 0-.299.122-.544.271-.544.15 0 .271.367.271.816 0 .448-.122.815-.27.815-.16 0-.272.905-.272 2.173s.113 2.174.271 2.174c.15 0 .271.367.271.815 0 .448.123.815.272.815.18 0 .271 27.715.271 82.6v82.599h-.958c-.733 0-1.182.223-1.9.942-.517.518-.94 1.102-.94 1.299 0 .196-.245.532-.543.748-.299.215-.543.551-.543.746 0 .495-2.336 2.786-2.841 2.786-.228 0-.415.122-.415.272 0 .149-.244.272-.542.272-.299 0-.543.122-.543.271 0 .15-.244.272-.542.272-.299 0-.543.065-.543.145 0 .336 1.916 2.029 2.297 2.029.229 0 .416.122.416.271 0 .15.366.272.814.272.448 0 .814-.122.814-.272 0-.149.186-.271.414-.271.7 0 2.842-2.35 2.842-3.118 0-.377.122-.686.271-.686.15 0 .272-.245.272-.544 0-.299.122-.543.27-.543.15 0 .272-.367.272-.815 0-.449.122-.815.271-.815.15 0 .272-.245.272-.544 0-.299.122-.543.271-.543.15 0 .271.367.271.815 0 .448-.122.815-.27.815-.16 0-.272.906-.272 2.174 0 1.268.113 2.173.271 2.173.15 0 .271.367.271.816 0 .448.123.815.272.815.149 0 .271.366.271.815 0 .448.122.815.271.815.15 0 .272.244.272.543 0 .299.122.544.271.544.15 0 .271.192.271.427 0 .412.612 1.203.93 1.203.086 0 .156-.367.156-.815 0-.448.122-.815.27-.815.15 0 .272-.245.272-.544 0-.299.122-.543.272-.543.149 0 .27-.245.27-.544 0-.298.123-.543.272-.543.15 0 .272-.367.272-.815 0-.448.122-.815.27-.815.164 0 .272-1.087.272-2.717 0-1.631-.108-2.717-.271-2.717-.15 0-.271-.245-.271-.544 0-.299.122-.543.27-.543.15 0 .272.244.272.543 0 .299.122.544.272.544.149 0 .27.244.27.543 0 .299.123.543.272.543.15 0 .271.367.271.816 0 .448.123.815.272.815.149 0 .271.244.271.543 0 .299.122.544.271.544.15 0 .272.187.272.416 0 .541 1.757 2.301 2.297 2.301.229 0 .416.122.416.271 0 .15.366.272.814.272.447 0 .814-.122.814-.272 0-.149.217-.271.483-.271.265 0 .658-.245.873-.544.215-.299.609-.543.874-.543.302 0 .483-.204.483-.544 0-.362-.181-.543-.543-.543-.298 0-.542-.122-.542-.272 0-.149-.195-.271-.434-.271s-.776-.367-1.194-.816c-.418-.448-.956-.815-1.194-.815a.435.435 0 01-.434-.434c0-.239-.366-.777-.814-1.196-.448-.419-.814-.899-.814-1.067 0-.617-2.412-2.737-3.113-2.737h-.685v-83.143c0-55.247.09-83.143.27-83.143.164 0 .272-1.086.272-2.717 0-1.63-.108-2.717-.271-2.717-.15 0-.271-.244-.271-.543 0-.299.122-.544.27-.544.15 0 .272.245.272.544 0 .299.122.543.272.543.149 0 .27.245.27.544 0 .299.123.543.272.543.15 0 .271.367.271.815 0 .449.123.815.272.815.149 0 .271.245.271.544 0 .299.122.543.271.543.15 0 .272.188.272.417 0 .541 1.757 2.3 2.297 2.3.229 0 .416.123.416.272 0 .149.366.272.814.272.447 0 .814-.123.814-.272 0-.149.244-.272.542-.272.299 0 .543-.122.543-.271 0-.15.192-.272.426-.272.549 0 1.202-.654 1.202-1.204 0-.245-.23-.426-.543-.426-.298 0-.542-.123-.542-.272 0-.15-.195-.272-.434-.272s-.776-.367-1.194-.815c-.418-.448-.956-.815-1.194-.815a.433.433 0 01-.434-.429c0-.236-.498-.908-1.106-1.493-.985-.948-1.061-1.109-.698-1.473.225-.225.845-.409 1.378-.409.532 0 .968-.122.968-.272 0-.149.245-.271.543-.271.299 0 .543-.123.543-.272 0-.15.244-.272.542-.272.299 0 .543-.122.543-.272 0-.149.244-.271.543-.271.298 0 .542-.123.542-.272 0-.149.185-.272.41-.272.536 0 5.56-5.03 5.56-5.566 0-.226.121-.411.27-.411.15 0 .272-.245.272-.544 0-.299.122-.543.271-.543.15 0 .272-.245.272-.544 0-.298.122-.543.27-.543.15 0 .272-.244.272-.543 0-.299.122-.544.271-.544.15 0 .272-.367.272-.815 0-.448.122-.815.271-.815.15 0 .271-.489.271-1.087s.123-1.087.272-1.087c.149 0 .271-.611.271-1.358 0-.747.122-1.359.271-1.359.166 0 .272-1.268.272-3.26 0-1.993-.106-3.261-.272-3.261-.15 0-.27-.724-.27-1.63 0-.906-.121-1.63-.272-1.63-.15 0-.272-.612-.272-1.359s-.122-1.358-.27-1.358c-.15 0-.272-.367-.272-.815 0-.449-.122-.816-.272-.816-.149 0-.27-.366-.27-.815 0-.448-.123-.815-.272-.815-.15 0-.271-.367-.271-.815 0-.448-.123-.815-.272-.815-.149 0-.271-.367-.271-.815 0-.449-.122-.815-.271-.815-.15 0-.272-.245-.272-.544 0-.299-.122-.543-.271-.543-.15 0-.271-.245-.271-.544 0-.299-.122-.543-.272-.543-.149 0-.271-.367-.271-.815 0-.449-.122-.815-.271-.815-.15 0-.272-.245-.272-.544 0-.299-.122-.543-.27-.543-.15 0-.272-.245-.272-.544 0-.298-.122-.543-.272-.543-.149 0-.27-.245-.27-.543 0-.299-.123-.544-.272-.544-.15 0-.272-.313-.272-.697 0-.478.425-1.111 1.357-2.02.746-.728 1.357-1.463 1.357-1.634 0-.171.488-.78 1.085-1.355.597-.574 1.085-1.21 1.085-1.413 0-.203.244-.545.543-.76.298-.216.542-.61.542-.876 0-.265.123-.483.272-.483.149 0 .271-.244.271-.543 0-.299.122-.544.271-.544.15 0 .272-.244.272-.543 0-.299.122-.544.271-.544.15 0 .271-.244.271-.543 0-.299.123-.543.272-.543.149 0 .271-.245.271-.544 0-.299.122-.543.271-.543.15 0 .272-.245.272-.544 0-.299.122-.543.271-.543.15 0 .271-.245.271-.544 0-.298.122-.543.272-.543.149 0 .27-.367.27-.815 0-.448.123-.815.272-.815.15 0 .272-.367.272-.815 0-.449.122-.815.27-.815.15 0 .272-.49.272-1.087 0-.598.122-1.087.272-1.087.149 0 .27-.367.27-.815 0-.449.123-.815.272-.815.15 0 .272-.612.272-1.359s.122-1.358.27-1.358c.15 0 .272-.367.272-.816 0-.633.12-.815.543-.815.298 0 .542-.122.542-.271 0-.15.367-.272.814-.272.448 0 .814-.122.814-.272 0-.149.367-.272.814-.272.448 0 .814-.122.814-.271 0-.15.244-.272.543-.272.298 0 .543-.122.543-.272 0-.149.217-.271.482-.271.266 0 .659-.245.874-.544.215-.299.55-.543.743-.543.459 0 3.87-3.416 3.87-3.875 0-.194.244-.529.542-.744.319-.23.543-.704.543-1.147 0-.415.122-.755.271-.755.15 0 .271-.367.271-.815 0-.449.123-.815.272-.815.164 0 .271-1.178.271-2.989 0-1.812-.107-2.989-.271-2.989-.15 0-.272-.245-.272-.543 0-.299-.122-.544-.27-.544-.15 0-.272-.244-.272-.543 0-.299-.122-.544-.272-.544-.149 0-.27-.186-.27-.414 0-.54-2.304-2.846-2.843-2.846-.227 0-.414-.122-.414-.272 0-.149-.244-.272-.542-.272-.299 0-.543-.122-.543-.271 0-.15-.366-.272-.814-.272-.448 0-.814-.122-.814-.272 0-.149-.61-.271-1.356-.271-.747 0-1.357-.123-1.357-.272 0-.155-.814-.272-1.9-.272h-1.898v-1.358c0-.748-.123-1.359-.272-1.359-.15 0-.271-.489-.271-1.087s-.122-1.087-.271-1.087c-.15 0-.272-.489-.272-1.086 0-.598-.122-1.087-.271-1.087-.15 0-.271-.367-.271-.815 0-.449-.123-.816-.272-.816-.149 0-.271-.489-.271-1.086 0-.598-.122-1.087-.271-1.087-.15 0-.272-.367-.272-.815 0-.449-.122-.815-.271-.815-.15 0-.271-.245-.271-.544 0-.299-.122-.543-.272-.543-.149 0-.271-.367-.271-.815 0-.449-.122-.816-.271-.816-.15 0-.272-.244-.272-.543 0-.299-.122-.543-.27-.543-.15 0-.272-.367-.272-.816 0-.448-.122-.815-.272-.815-.149 0-.27-.244-.27-.543 0-.299-.123-.544-.272-.544-.15 0-.272-.244-.272-.543 0-.299-.122-.543-.27-.543-.15 0-.272-.245-.272-.544 0-.299-.122-.543-.272-.543-.149 0-.27-.245-.27-.544 0-.298-.123-.543-.272-.543-.15 0-.271-.245-.271-.543 0-.299-.123-.544-.272-.544-.149 0-.271-.217-.271-.483s-.244-.66-.543-.875c-.298-.216-.542-.61-.542-.876 0-.265-.122-.483-.272-.483-.149 0-.271-.218-.271-.483 0-.266-.244-.66-.543-.875-.298-.216-.542-.561-.542-.767 0-.205-.367-.717-.814-1.135-.448-.419-.814-.908-.814-1.087 0-.179-.366-.668-.814-1.087-.448-.419-.814-.899-.814-1.066 0-.388-2.876-3.281-3.262-3.281-.552 0-1.622-1.337-1.622-2.026 0-.38.122-.692.271-.692.17 0 .272-1.63.272-4.347 0-2.717.102-4.347.271-4.347.15 0 .271.367.271.815 0 .448.123.815.272.815.149 0 .271.245.271.543 0 .299.122.544.271.544.15 0 .272.218.272.483 0 .266.244.66.542.875.299.216.543.553.543.749 0 .463 1.774 2.24 2.237 2.24.196 0 .532.245.747.544.216.299.609.543.874.543.266 0 .483.122.483.272 0 .149.244.271.543.271.298 0 .542.123.542.272 0 .15.367.272.814.272.448 0 .814.122.814.272 0 .149.61.271 1.357.271.746 0 1.356.123 1.356.272 0 .149.489.272 1.086.272.597 0 1.085-.123 1.085-.272 0-.149.61-.272 1.357-.272.746 0 1.356-.122 1.356-.271 0-.15.367-.272.814-.272.448 0 .814-.122.814-.272 0-.149.244-.272.543-.272.298 0 .542-.122.542-.271 0-.15.218-.272.483-.272.266 0 .659-.244.874-.543.215-.299.55-.544.743-.544.459 0 3.87-3.415 3.87-3.875 0-.193.244-.528.542-.744.298-.215.543-.609.543-.875s.122-.483.271-.483c.15 0 .271-.245.271-.544 0-.299.122-.543.272-.543.149 0 .27-.367.27-.815 0-.449.123-.815.272-.815.15 0 .272-.367.272-.816 0-.448.122-.815.27-.815.17 0 .272-1.63.272-4.347 0-2.717-.102-4.347-.271-4.347-.15 0-.271-.367-.271-.815 0-.449-.123-.816-.272-.816-.149 0-.271-.366-.271-.815 0-.448-.122-.815-.271-.815-.15 0-.272-.218-.272-.483 0-.266-.244-.66-.542-.875-.299-.216-.543-.583-.543-.816 0-.232-.244-.599-.543-.815-.298-.215-.542-.55-.542-.743 0-.459-3.954-4.419-4.413-4.419-.193 0-.527-.245-.742-.544-.215-.298-.582-.543-.814-.543-.233 0-.599-.245-.814-.543-.215-.299-.608-.544-.874-.544s-.483-.122-.483-.272c0-.149-.366-.271-.814-.271-.447 0-.814-.122-.814-.272 0-.149-.244-.272-.542-.272-.299 0-.543-.122-.543-.271 0-.15-.366-.272-.814-.272-.448 0-.814-.122-.814-.272 0-.149-.61-.271-1.357-.271-.746 0-1.356-.123-1.356-.272 0-.169-1.538-.272-4.07-.272s-4.07.103-4.07.272c0 .149-.488.272-1.085.272s-1.085.122-1.085.271c0 .15-.489.272-1.085.272-.597 0-1.086.122-1.086.272 0 .149-.244.271-.542.271-.299 0-.543.123-.543.272 0 .15-.244.272-.543.272-.298 0-.542.122-.542.271 0 .15-.244.272-.543.272-.298 0-.542.122-.542.272 0 .149-.245.272-.543.272-.299 0-.543.122-.543.271 0 .404-.796.329-1.24-.116-.213-.214-.388-.703-.388-1.087s-.122-.699-.271-.699c-.15 0-.271-.244-.271-.543 0-.299-.122-.543-.272-.543-.149 0-.271-.367-.271-.816 0-.448-.122-.815-.271-.815-.15 0-.272-.244-.272-.543 0-.299-.122-.544-.27-.544-.15 0-.272-.366-.272-.815 0-.448-.122-.815-.272-.815-.149 0-.27-.367-.27-.815 0-.448-.123-.815-.272-.815-.15 0-.271-.367-.271-.815 0-.449-.123-.815-.272-.815-.149 0-.271-.489-.271-1.087s-.122-1.087-.271-1.087c-.15 0-.272-.489-.272-1.087s-.122-1.087-.271-1.087c-.171 0-.271-1.811-.271-4.89 0-3.08.1-4.891.27-4.891.15 0 .272-.489.272-1.087s.122-1.087.272-1.087c.149 0 .27-.367.27-.815 0-.448.123-.815.272-.815.15 0 .272-.245.272-.544 0-.298.122-.543.27-.543.15 0 .272-.244.272-.543 0-.299.122-.544.271-.544.15 0 .272-.185.272-.413 0-.501 3.375-3.934 3.869-3.934.194 0 .528-.245.743-.544.215-.298.608-.543.874-.543.265 0 .483-.122.483-.272 0-.149.366-.271.814-.271.447 0 .814-.123.814-.272 0-.165 1.175-.272 2.984-.272 1.81 0 2.985.107 2.985.272 0 .149.244.272.542.272.299 0 .543.122.543.271 0 .15.217.272.483.272.265 0 .658.245.873.543.216.299.609.544.874.544.266 0 .483.195.483.434s.366.777.814 1.196c.5.468.814 1.033.814 1.468 0 .388.122.706.271.706.163 0 .272 1.087.272 2.717 0 1.63-.109 2.717-.272 2.717-.149 0-.271.245-.271.543 0 .299-.122.544-.271.544-.15 0-.272.192-.272.427 0 .524-.645 1.203-1.141 1.203-.202 0-.543.245-.758.543-.23.319-.702.544-1.145.544-.415 0-.754.122-.754.272 0 .151-.724.271-1.628.271-.904 0-1.628-.12-1.628-.271 0-.15-.366-.272-.814-.272-.447 0-.814-.07-.814-.155 0-.272.764-.932 1.078-.932.451 0 1.635-1.27 1.635-1.754 0-.231.122-.42.272-.42.149 0 .271-.489.271-1.086 0-.598-.122-1.087-.271-1.087-.15 0-.272-.189-.272-.42 0-.544-1.208-1.754-1.751-1.754-.23 0-.42-.122-.42-.272 0-.149-.552-.271-1.227-.271-1.093 0-1.362.134-2.442 1.215-1.19 1.191-1.214 1.251-1.214 2.989 0 1.001.118 1.773.272 1.773.149 0 .27.367.27.815 0 .449.123.815.272.815.15 0 .271.187.271.415 0 .539 2.304 2.846 2.842 2.846.228 0 .414.122.414.272 0 .149.244.271.543.271.298 0 .542.123.542.272 0 .165 1.176.272 2.985.272s2.984-.107 2.984-.272c0-.149.34-.272.755-.272.442 0 .915-.224 1.145-.543.215-.299.55-.543.744-.543.494 0 3.325-2.887 3.325-3.391 0-.227.123-.413.272-.413.149 0 .271-.367.271-.815 0-.449.122-.816.271-.816.15 0 .272-.611.272-1.358 0-.747.122-1.359.271-1.359.15 0 .271-.489.271-1.087 0-.597-.122-1.086-.27-1.086-.15 0-.272-.612-.272-1.359s-.122-1.358-.272-1.358c-.149 0-.27-.367-.27-.816 0-.448-.123-.815-.272-.815-.15 0-.272-.217-.272-.483s-.244-.66-.542-.875c-.299-.216-.543-.551-.543-.745 0-.461-2.866-3.331-3.326-3.331-.194 0-.528-.244-.744-.543-.215-.299-.608-.544-.873-.544-.266 0-.483-.122-.483-.271 0-.15-.366-.272-.814-.272-.448 0-.814-.122-.814-.272 0-.155-.814-.272-1.9-.272-1.044 0-1.899-.065-1.899-.144 0-.409 1.96-2.029 2.453-2.029.314 0 .752-.181.973-.403.355-.355.29-.514-.553-1.358-.863-.863-1.1-.956-2.457-.956-.825 0-1.5.122-1.5.271 0 .15-.19.272-.42.272-.66 0-1.751 1.263-1.751 2.026 0 .38-.122.691-.272.691-.149 0-.271.189-.271.42 0 .391-1.15 1.754-1.48 1.754-.081 0-.148-.978-.148-2.174 0-1.268-.113-2.173-.271-2.173-.15 0-.271-.367-.271-.816 0-.448-.123-.815-.272-.815-.18 0-.271-27.533-.271-82.056 0-81.874 0-82.056.543-82.056.298 0 .542-.122.542-.272 0-.149.244-.271.543-.271.298 0 .542-.122.542-.272 0-.15.245-.272.543-.272.34 0 .543-.18.543-.483 0-.266.244-.66.542-.875.299-.216.543-.55.543-.744 0-.494 3.972-4.419 4.472-4.419.227 0 .412-.122.412-.271 0-.15.244-.272.542-.272.738 0 .692-.14-.398-1.232-.867-.868-1.07-.942-2.59-.942-1.389 0-1.754.105-2.315.667-.366.367-.666.856-.666 1.087 0 .231-.122.42-.271.42-.15 0-.271.245-.271.543 0 .3-.122.544-.272.544-.149 0-.271.244-.271.543 0 .3-.122.544-.271.544-.15 0-.272.366-.272.815 0 .448-.122.815-.27.815-.15 0-.272.192-.272.427 0 .538-.776 1.337-1.03 1.062-.105-.113-.038-.26.148-.326.424-.152.49-6.054.068-6.054-.15 0-.271-.367-.271-.815 0-.448-.123-.815-.272-.815-.15 0-.271-.245-.271-.543 0-.3-.122-.544-.271-.544-.15 0-.272-.244-.272-.543 0-.3-.122-.544-.271-.544-.15 0-.271-.367-.271-.815 0-.448-.07-.815-.155-.815-.398 0-.93.846-.93 1.475 0 .384-.123.699-.272.699-.15 0-.271.244-.271.543 0 .299-.122.543-.272.543-.149 0-.271.245-.271.544 0 .299-.122.543-.271.543-.15 0-.272.367-.272.815 0 .449-.122.816-.27.816-.16 0-.272.905-.272 2.173s.113 2.174.271 2.174c.15 0 .271.367.271.815 0 .448-.122.815-.27.815-.15 0-.272-.244-.272-.543 0-.3-.122-.544-.272-.544-.149 0-.27-.244-.27-.543 0-.299-.123-.544-.272-.544-.15 0-.271-.366-.271-.815 0-.448-.123-.815-.272-.815-.149 0-.271-.244-.271-.543 0-.299-.122-.544-.271-.544-.15 0-.272-.187-.272-.416 0-.23-.423-.84-.94-1.359-.867-.867-1.07-.942-2.587-.942-1.516 0-1.72.075-2.586.942-1.09 1.092-1.136 1.232-.398 1.232.298 0 .542.122.542.272 0 .15.218.271.483.271s.659.245.874.544c.215.299.553.543.75.543.44 0 1.692 1.217 1.692 1.645 0 .171.366.654.814 1.072.447.419.814.9.814 1.07 0 .458 1.817 2.19 2.297 2.19.229 0 .416.123.416.272 0 .15.244.272.542.272.542 0 .543.181.543 82.328 0 54.704-.091 82.328-.271 82.328-.15 0-.272.367-.272.815 0 .448-.122.815-.27.815-.16 0-.272.906-.272 2.174 0 1.268.113 2.173.271 2.173.15 0 .271.367.271.815 0 .449-.122.816-.27.816-.15 0-.272-.245-.272-.544 0-.299-.122-.543-.272-.543-.149 0-.27-.245-.27-.544 0-.299-.123-.543-.272-.543-.15 0-.271-.367-.271-.815 0-.449-.123-.815-.272-.815-.149 0-.271-.245-.271-.544 0-.299-.122-.543-.271-.543-.15 0-.272-.188-.272-.417 0-.229-.423-.84-.94-1.358-.867-.868-1.07-.942-2.587-.942-1.516 0-1.72.074-2.586.942-1.09 1.091-1.136 1.231-.398 1.231.298 0 .542.123.542.272 0 .15.218.272.483.272s.659.244.874.543c.215.299.553.544.75.544.44 0 1.692 1.216 1.692 1.644 0 .171.366.654.814 1.073.447.418.814.907.814 1.087 0 .179.377.677.837 1.108l.837.783-1.38 1.346c-.759.741-1.38 1.511-1.38 1.711 0 .202-.244.542-.542.757-.299.216-.543.61-.543.876 0 .265-.122.483-.271.483-.15 0-.272.367-.272.815 0 .448-.122.815-.27.815-.15 0-.272.245-.272.544 0 .299-.122.543-.271.543-.15 0-.272.489-.272 1.087s-.122 1.087-.271 1.087c-.15 0-.271.489-.271 1.087 0 .597-.123 1.086-.272 1.086-.17 0-.271 1.812-.271 4.891 0 3.079.1 4.891.271 4.891.15 0 .271.611.271 1.358 0 .748.123 1.359.272 1.359.15 0 .271.367.271.815 0 .448.122.815.271.815.15 0 .272.489.272 1.087s.122 1.087.271 1.087c.15 0 .271.367.271.815 0 .448.123.815.272.815.149 0 .271.245.271.544 0 .298.122.543.271.543.15 0 .272.367.272.815 0 .448.122.815.271.815.15 0 .271.245.271.544 0 .299.122.543.272.543.149 0 .271.367.271.815 0 .449.122.815.271.815.15 0 .272.245.272.544 0 .299.122.543.27.543.15 0 .272.245.272.544 0 .298.122.543.272.543.149 0 .27.367.27.815 0 .448.123.815.272.815.15 0 .272.234.272.521 0 .287.15.571.336.633.198.066-.25.685-1.085 1.5-.782.762-1.422 1.529-1.422 1.703 0 .174-.366.659-.814 1.077-.448.419-.814.908-.814 1.087 0 .179-.366.668-.814 1.087-.448.419-.814.957-.814 1.196s-.122.434-.271.434c-.15 0-.271.245-.271.544 0 .299-.123.543-.272.543-.149 0-.271.218-.271.484s-.244.659-.543.875c-.318.23-.542.703-.542 1.147 0 .415-.122.755-.272.755-.149 0-.271.244-.271.543 0 .299-.122.544-.271.544-.15 0-.272.244-.272.543 0 .299-.122.543-.271.543-.15 0-.271.367-.271.816 0 .448-.122.815-.272.815-.149 0-.27.366-.27.815 0 .448-.123.815-.272.815-.15 0-.272.367-.272.815 0 .448-.122.815-.27.815-.15 0-.272.489-.272 1.087s-.122 1.087-.272 1.087c-.149 0-.27.489-.27 1.087 0 .597-.123 1.086-.272 1.086-.15 0-.272.437-.272.971 0 1.027-.494 1.747-1.201 1.747-.235 0-.426.122-.426.271 0 .15-.367.272-.814.272-.448 0-.814.122-.814.272 0 .149-.367.271-.814.271-.448 0-.814.123-.814.272 0 .15-.244.272-.543.272-.298 0-.542.122-.542.272 0 .149-.218.271-.483.271-.266 0-.659.245-.874.544-.215.299-.55.543-.744.543-.46 0-3.326 2.87-3.326 3.331 0 .194-.244.529-.542.745-.299.215-.543.609-.543.875s-.122.483-.271.483c-.15 0-.272.367-.272.815 0 .449-.122.816-.271.816-.15 0-.271.611-.271 1.358 0 .747-.122 1.359-.272 1.359-.149 0-.271.489-.271 1.086 0 .598.122 1.087.271 1.087zm2.713-2.717c.15 0 .272-.489.272-1.087 0-.597.122-1.086.271-1.086.15 0 .271-.245.271-.544 0-.299.123-.543.272-.543.149 0 .271-.186.271-.414 0-.503 2.832-3.39 3.326-3.39.194 0 .529-.245.744-.544.215-.299.608-.543.874-.543.265 0 .482-.122.482-.272 0-.149.245-.272.543-.272.298 0 .543-.122.543-.271 0-.15.366-.272.814-.272.447 0 .814-.122.814-.272 0-.149.244-.271.542-.271.422 0 .543.181.543.815 0 .448-.122.815-.271.815-.174 0-.272 2.355-.272 6.521s.098 6.521.272 6.521c.16 0 .27.996.27 2.445v2.446h-.813c-.448 0-.814-.123-.814-.272 0-.151-.724-.272-1.628-.272-.904 0-1.628-.12-1.628-.271 0-.15-.366-.272-.814-.272-.447 0-.814-.122-.814-.272 0-.149-.186-.272-.413-.272-.227 0-1.081-.669-1.899-1.488-1.238-1.24-1.486-1.648-1.486-2.445 0-.527-.122-.957-.272-.957-.15 0-.27-.725-.27-1.631 0-.905.12-1.63.27-1.63zm4.342 63.58c.149 0 .27-.489.27-1.087s.123-1.087.272-1.087c.15 0 .272-.244.272-.543 0-.299.122-.543.27-.543.15 0 .272-.245.272-.544 0-.299.122-.543.271-.543.15 0 .272-.186.272-.412 0-.537 3.936-4.479 4.472-4.479.227 0 .412-.122.412-.272 0-.149.244-.272.542-.272.299 0 .543-.122.543-.271 0-.15.244-.272.542-.272.299 0 .543-.122.543-.272 0-.149.61-.271 1.357-.271.746 0 1.356-.123 1.356-.272 0-.15.489-.272 1.085-.272.597 0 1.086.122 1.086.272 0 .149.488.272 1.085.272s1.085.122 1.085.271c0 .15.367.272.814.272.448 0 .814.122.814.272 0 .149.186.271.412.271.502 0 3.93 3.381 3.93 3.875 0 .194.244.529.542.745.378.272.543.703.543 1.418 0 .565.122 1.027.27 1.027.15 0 .272.611.272 1.358 0 .748-.122 1.359-.271 1.359-.15 0-.271.489-.271 1.087 0 .905-.09 1.087-.543 1.087-.4 0-.543-.182-.543-.689 0-.765-1.613-2.572-2.297-2.572-.229 0-.416-.122-.416-.272 0-.154-.794-.271-1.84-.271-1.527 0-1.905.092-2.23.543-.215.299-.608.544-.873.544-.302 0-.483.203-.483.543 0 .299-.122.543-.271.543-.15 0-.272.245-.272.544 0 .299-.122.543-.271.543-.151 0-.271.725-.271 1.63 0 .906.12 1.631.27 1.631.15 0 .272.187.272.416 0 .541 1.757 2.301 2.297 2.301.23 0 .416.122.416.272 0 .149.61.271 1.357.271.746 0 1.357-.122 1.357-.271 0-.15.307-.272.682-.272.488 0 1.263-.581 2.713-2.034 1.117-1.118 2.03-2.218 2.03-2.445 0-.227.123-.412.272-.412.15 0 .272-.244.272-.543 0-.299.122-.544.27-.544.159 0 .272-.905.272-2.173s.113-2.174.272-2.174c.149 0 .27.611.27 1.358 0 .748.123 1.359.272 1.359.15 0 .271.611.271 1.359 0 .747.123 1.358.272 1.358.149 0 .271.489.271 1.087s.122 1.087.271 1.087c.15 0 .272.367.272.815 0 .448.122.815.271.815.15 0 .271.367.271.815 0 .448.122.815.272.815.149 0 .271.367.271.815 0 .449.122.816.271.816.15 0 .272.244.272.543 0 .299.122.543.27.543.15 0 .272.367.272.815 0 .449.122.816.271.816.15 0 .272.366.272.815 0 .448.122.815.271.815.15 0 .271.244.271.543 0 .299.123.544.272.544.403 0 .328.797-.117 1.242-.213.213-.579.388-.814.388-.234 0-.426.122-.426.272 0 .149-.244.271-.542.271-.299 0-.543.123-.543.272 0 .149-.244.272-.543.272-.298 0-.542.122-.542.271 0 .15-.245.272-.543.272-.298 0-.543.122-.543.272 0 .149-.366.272-.813.272-.448 0-.814.122-.814.271 0 .15-.489.272-1.086.272-.597 0-1.085.122-1.085.272 0 .166-1.266.271-3.256.271-1.99 0-3.256-.105-3.256-.271 0-.15-.61-.272-1.356-.272-.746 0-1.357-.122-1.357-.272 0-.149-.366-.271-.814-.271-.448 0-.814-.123-.814-.272 0-.15-.366-.272-.814-.272-.447 0-.814-.122-.814-.272 0-.149-.217-.271-.482-.271-.266 0-.66-.245-.874-.544-.215-.299-.582-.543-.814-.543-.233 0-.599-.245-.814-.543-.215-.299-.55-.544-.744-.544-.46 0-3.326-2.87-3.326-3.331 0-.194-.244-.529-.543-.745-.298-.215-.542-.582-.542-.815 0-.233-.244-.599-.543-.815-.318-.23-.542-.703-.542-1.147 0-.415-.123-.755-.272-.755-.149 0-.271-.367-.271-.815 0-.448-.122-.815-.271-.815-.166 0-.272-1.268-.272-3.261 0-1.992.106-3.26.272-3.26zm9.767-65.21c.169 0 .271-1.501.271-3.959 0-3.069.087-4.047.388-4.347.465-.466 6.667-.575 6.667-.117 0 .149.366.272.814.272.447 0 .814.122.814.271 0 .15.488.272 1.085.272s1.085.122 1.085.272c0 .149.244.271.543.271.298 0 .542.123.542.272 0 .15.245.272.543.272.298 0 .543.122.543.272 0 .149.244.271.542.271.299 0 .543.123.543.272 0 .149.192.272.426.272.235 0 .601.174.814.388.44.441.528 1.785.117 1.785-.15 0-.272.367-.272.816 0 .448-.122.815-.271.815-.15 0-.271.244-.271.543 0 .299-.123.544-.272.544-.149 0-.271.217-.271.483s-.244.66-.543.875c-.298.216-.542.558-.542.761 0 .202-.489.838-1.086 1.413-.597.574-1.085 1.185-1.085 1.356 0 .404-.684 1.089-1.087 1.089-.172 0-.781.489-1.355 1.087-.573.598-1.208 1.087-1.41 1.087-.204 0-.545.244-.76.543-.216.3-.703.544-1.086.544-.382 0-.87.243-1.085.543-.23.319-.702.543-1.145.543-.415 0-.754.123-.754.272 0 .15-.488.272-1.085.272h-1.086v-3.804c0-2.355-.103-3.804-.271-3.804-.15 0-.271-.611-.271-1.359 0-.747.122-1.358.271-1.358zm1.202 13.43c.213-.213.701-.388 1.085-.388s.698-.122.698-.272c0-.149.366-.272.814-.272.447 0 .813-.122.813-.271 0-.15.245-.272.543-.272.299 0 .543-.122.543-.272 0-.149.244-.271.542-.271.299 0 .543-.123.543-.272 0-.149.244-.272.543-.272.298 0 .542-.122.542-.271 0-.15.218-.272.483-.272s.659-.245.874-.544c.215-.298.549-.543.742-.543.457 0 5.498-5.049 5.498-5.506 0-.194.244-.528.543-.743.298-.216.542-.583.542-.815 0-.233.245-.6.543-.816.298-.215.543-.609.543-.875 0-.265.122-.483.271-.483.15 0 .271-.314.271-.699 0-.72.549-1.475 1.072-1.475.391 0 3.27 2.889 3.27 3.282 0 .167.366.647.813 1.066.448.418.814.93.814 1.135 0 .206.244.551.543.767.298.215.543.582.543.815 0 .233.244.599.542.815.299.215.543.609.543.875s.122.483.271.483c.15 0 .271.245.271.544 0 .299.123.543.272.543.149 0 .271.245.271.544 0 .298.122.543.271.543.15 0 .272.245.272.543 0 .299.122.544.271.544.15 0 .271.218.271.483 0 .266.245.66.543.875.319.231.543.704.543 1.147 0 .415.122.755.271.755.15 0 .271.245.271.544 0 .299.122.543.272.543.149 0 .27.367.27.815 0 .449.123.815.272.815.15 0 .272.245.272.544 0 .299.122.543.27.543.15 0 .272.367.272.815 0 .449.122.816.271.816.15 0 .272.366.272.815 0 .448.122.815.271.815.15 0 .271.367.271.815 0 .448.123.815.272.815.149 0 .271.489.271 1.087s.122 1.087.271 1.087c.15 0 .272.489.272 1.087 0 .597.122 1.086.271 1.086.15 0 .271.612.271 1.359s.123 1.358.272 1.358c.422 0 .324 2.432-.117 2.873-.213.213-.701.388-1.085.388s-.697.122-.697.272c0 .149-.367.271-.815.271-.447 0-.813.123-.813.272 0 .15-.245.272-.543.272-.299 0-.543.122-.543.271 0 .15-.244.272-.542.272-.299 0-.543.122-.543.272 0 .149-.244.272-.543.272-.298 0-.542.122-.542.271 0 .15-.218.272-.483.272s-.659.245-.874.543c-.215.299-.549.544-.742.544-.458 0-4.956 4.504-4.956 4.963 0 .193-.244.527-.542.743-.299.215-.543.582-.543.815 0 .233-.244.6-.542.815-.299.215-.543.609-.543.875s-.122.484-.271.484c-.15 0-.272.244-.272.543 0 .299-.122.543-.271.543-.15 0-.271.367-.271.816 0 .548-.135.815-.413.815-.474 0-3.386-2.823-3.386-3.282 0-.167-.366-.647-.814-1.066-.447-.418-.814-.93-.814-1.135 0-.206-.244-.551-.542-.767-.299-.215-.543-.582-.543-.815 0-.233-.244-.599-.543-.815-.298-.215-.542-.609-.542-.875s-.122-.483-.272-.483c-.149 0-.27-.218-.27-.484s-.245-.66-.543-.875c-.299-.215-.543-.609-.543-.875s-.122-.484-.271-.484c-.15 0-.272-.244-.272-.543 0-.299-.122-.543-.271-.543-.15 0-.271-.245-.271-.544 0-.299-.122-.543-.272-.543-.149 0-.271-.245-.271-.544 0-.299-.122-.543-.271-.543-.15 0-.272-.367-.272-.815 0-.448-.122-.815-.271-.815-.15 0-.271-.245-.271-.544 0-.299-.122-.543-.272-.543-.149 0-.27-.367-.27-.815 0-.449-.123-.815-.272-.815-.15 0-.272-.245-.272-.544 0-.299-.122-.543-.27-.543-.15 0-.272-.367-.272-.815 0-.449-.122-.815-.271-.815-.15 0-.272-.367-.272-.816 0-.448-.122-.815-.271-.815-.15 0-.271-.367-.271-.815 0-.448-.123-.815-.272-.815-.149 0-.271-.611-.271-1.359 0-.747-.122-1.358-.271-1.358-.15 0-.272-.489-.272-1.087s-.122-1.087-.271-1.087c-.15 0-.271-.611-.271-1.358 0-.747-.122-1.359-.272-1.359-.403 0-.328-.797.117-1.242zm.426-27.559c.15 0 .271-.367.271-.815 0-.448.122-.815.272-.815.149 0 .27-.489.27-1.087s.123-1.087.272-1.087c.15 0 .271-.367.271-.815 0-.448.123-.815.272-.815.15 0 .271-.367.271-.815 0-.449.122-.815.271-.815.15 0 .272-.245.272-.544 0-.299.122-.543.271-.543.15 0 .271-.245.271-.544 0-.299.123-.543.272-.543.149 0 .271-.245.271-.543 0-.299.122-.544.271-.544.15 0 .272-.244.272-.543 0-.299.122-.544.271-.544.15 0 .271-.217.271-.483s.245-.66.543-.875c.298-.216.543-.583.543-.815 0-.233.244-.6.542-.815.299-.216.543-.551.543-.746 0-.33 2.805-3.33 3.114-3.33.078 0 .142.244.142.543 0 .299.122.544.271.544.15 0 .271.244.271.543 0 .299.122.544.272.544.149 0 .271.244.271.543 0 .299.122.543.271.543.15 0 .272.367.272.816 0 .448.122.815.27.815.15 0 .272.366.272.815 0 .448.122.815.271.815.15 0 .272.367.272.815 0 .448.122.815.271.815.15 0 .272.245.272.544 0 .298.122.543.27.543.15 0 .272.489.272 1.087s.122 1.087.272 1.087c.149 0 .27.489.27 1.086 0 .598.123 1.087.272 1.087.155 0 .271.815.271 1.902s.117 1.902.272 1.902c.457 0 .349 6.211-.117 6.676-.444.446-1.24.52-1.24.117 0-.149-.244-.272-.542-.272-.299 0-.543-.122-.543-.271 0-.15-.244-.272-.543-.272-.298 0-.542-.122-.542-.272 0-.149-.367-.272-.814-.272-.448 0-.814-.122-.814-.271 0-.15-.367-.272-.814-.272-.448 0-.814-.122-.814-.272 0-.149-.61-.271-1.357-.271-.746 0-1.356-.123-1.356-.272 0-.165-1.176-.272-2.985-.272H18.45v-1.358c0-.748.122-1.359.27-1.359zm13.96-22.156c.367-.367.828-.667 1.026-.667.197 0 .535-.245.75-.544.23-.319.703-.543 1.146-.543.414 0 .754-.123.754-.272 0-.149.244-.272.542-.272.299 0 .543-.122.543-.271 0-.15.488-.272 1.085-.272s1.085-.122 1.085-.272c0-.17 1.628-.272 4.341-.272 2.714 0 4.342.102 4.342.272 0 .15.488.272 1.085.272s1.085.122 1.085.272c0 .149.366.271.814.271.448 0 .814.123.814.272 0 .149.244.272.543.272.298 0 .542.122.542.271 0 .15.245.272.543.272.298 0 .543.122.543.272 0 .149.195.272.433.272.239 0 .776.366 1.194.815.419.448.898.815 1.066.815.397 0 2.733 2.339 2.733 2.736 0 .169.366.649.814 1.068.448.418.814.957.814 1.195 0 .24.122.435.271.435.15 0 .272.244.272.543 0 .299.122.544.27.544.15 0 .272.367.272.815 0 .448.122.815.271.815.15 0 .272.611.272 1.359 0 .747.122 1.358.271 1.358.15 0 .271.725.271 1.63 0 .906-.12 1.631-.27 1.631-.15 0-.272.611-.272 1.358 0 .747-.122 1.359-.272 1.359-.149 0-.27.367-.27.815 0 .448-.123.815-.272.815-.15 0-.271.245-.271.543 0 .299-.123.544-.272.544-.15 0-.271.185-.271.411 0 .537-4.48 5.023-5.016 5.023-.226 0-.41.122-.41.272 0 .149-.245.271-.543.271-.299 0-.543.123-.543.272 0 .15-.244.272-.542.272-.299 0-.543.122-.543.272 0 .166-1.266.271-3.256.271-1.99 0-3.256-.105-3.256-.271 0-.15-.244-.272-.542-.272-.299 0-.543-.122-.543-.272 0-.149-.244-.272-.543-.272-.298 0-.542-.122-.542-.271 0-.15-.186-.272-.412-.272-.537 0-3.93-3.397-3.93-3.935 0-.227-.121-.412-.27-.412-.15 0-.272-.245-.272-.544 0-.299-.122-.543-.271-.543-.161 0-.272-.997-.272-2.446 0-2.264.04-2.445.543-2.445.307 0 .543.181.543.417 0 .229.423.84.94 1.358.71.711 1.17.942 1.877.942.515 0 1.007.153 1.094.34.127.271.19.271.317 0 .087-.187.578-.34 1.092-.34.745 0 1.18-.247 2.148-1.215.797-.799 1.214-1.452 1.214-1.902 0-.378.122-.687.271-.687.15 0 .271-.367.271-.815 0-.448-.122-.815-.27-.815-.15 0-.272-.309-.272-.686 0-.451-.417-1.104-1.214-1.902l-1.214-1.216h-4.365l-1.759 1.761c-.967.969-1.758 1.947-1.758 2.174 0 .227-.122.412-.272.412-.149 0-.27.245-.27.544 0 .299-.123.543-.272.543-.15 0-.272.367-.272.815 0 .449-.122.815-.27.815-.15 0-.272.367-.272.816 0 .448-.122.815-.272.815-.149 0-.27-.612-.27-1.359s-.123-1.358-.272-1.358c-.15 0-.271-.489-.271-1.087s-.123-1.087-.272-1.087c-.149 0-.271-.489-.271-1.087s-.122-1.087-.271-1.087c-.15 0-.272-.367-.272-.815 0-.448-.122-.815-.271-.815-.15 0-.271-.367-.271-.815 0-.448-.122-.815-.272-.815-.149 0-.271-.367-.271-.815 0-.449-.122-.815-.271-.815-.15 0-.272-.367-.272-.816 0-.448-.122-.815-.27-.815-.15 0-.272-.244-.272-.543 0-.299-.122-.544-.271-.544-.15 0-.272-.366-.272-.815 0-.448-.122-.815-.271-.815-.497 0-.28-.831.395-1.506zm4.158 89.54c.266 0 .659.244.874.543.23.319.703.544 1.145.544.415 0 .754.122.754.271 0 .15.245.272.543.272.298 0 .543.122.543.272 0 .149.366.271.814.271.447 0 .814.123.814.272 0 .15.366.272.813.272.448 0 .814.122.814.272 0 .151.724.271 1.628.271.905 0 1.628.121 1.628.272 0 .161.995.272 2.442.272h2.442v.815c0 .448-.122.815-.271.815-.15 0-.272.367-.272.815 0 .448-.122.815-.27.815-.15 0-.272.489-.272 1.087s-.122 1.087-.272 1.087c-.149 0-.27.367-.27.815 0 .448-.123.815-.272.815-.15 0-.272.367-.272.815 0 .449-.122.815-.27.815-.15 0-.272.245-.272.544 0 .299-.122.543-.272.543-.149 0-.27.367-.27.815 0 .449-.123.815-.272.815-.15 0-.271.245-.271.544 0 .299-.123.543-.272.543-.149 0-.271.245-.271.544 0 .299-.122.543-.271.543-.15 0-.272.218-.272.484s-.244.659-.542.875c-.299.215-.543.582-.543.815 0 .233-.244.6-.543.815-.298.215-.542.557-.542.76 0 .203-.489.839-1.086 1.414-.596.574-1.085 1.185-1.085 1.356 0 .172-.183.496-.407.72-.361.362-.452.362-.814 0-.224-.224-.407-.599-.407-.834s-.122-.427-.271-.427c-.15 0-.271-.367-.271-.815 0-.449-.122-.815-.272-.815-.149 0-.271-.245-.271-.544 0-.299-.122-.543-.271-.543-.15 0-.272-.367-.272-.815 0-.449-.122-.816-.27-.816-.15 0-.272-.366-.272-.815 0-.448-.122-.815-.272-.815-.149 0-.27-.367-.27-.815 0-.448-.123-.815-.272-.815-.15 0-.272-.367-.272-.815 0-.449-.122-.815-.27-.815-.15 0-.272-.489-.272-1.087s-.122-1.087-.272-1.087c-.149 0-.27-.611-.27-1.359 0-.747-.123-1.358-.272-1.358-.17 0-.271-1.721-.271-4.619 0-4.247.038-4.619.482-4.619zm.874-4.891c.15 0 .271-.367.271-.815 0-.448.123-.815.272-.815.149 0 .271-.245.271-.544 0-.298.122-.543.271-.543.15 0 .272-.218.272-.483 0-.266.244-.66.542-.876.299-.215.543-.549.543-.742 0-.458 5.041-5.507 5.499-5.507.192 0 .526-.244.741-.543.215-.299.609-.544.874-.544.266 0 .483-.122.483-.271 0-.15.244-.272.543-.272.298 0 .542-.122.542-.272 0-.149.366-.272.814-.272.448 0 .814-.122.814-.271 0-.15.366-.272.814-.272.448 0 .814-.122.814-.272 0-.149.122-.271.271-.271.15 0 .272.366.272.815 0 .448.122.815.271.815.174 0 .271 2.717.271 7.608 0 4.89-.097 7.608-.271 7.608-.15 0-.271.611-.271 1.358v1.359h-2.714c-1.627 0-2.713-.109-2.713-.272 0-.15-.61-.272-1.356-.272-.746 0-1.357-.122-1.357-.271 0-.15-.366-.272-.814-.272-.448 0-.814-.122-.814-.272 0-.149-.366-.272-.814-.272-.447 0-.814-.122-.814-.271 0-.15-.244-.272-.542-.272-.299 0-.543-.122-.543-.272 0-.149-.244-.271-.543-.271-.298 0-.542-.123-.542-.272 0-.15-.188-.272-.419-.272-.23 0-.591-.153-.803-.339-.437-.386-.55-2.378-.135-2.378zm20.892-14.129c1.266 0 2.17.114 2.17.272 0 .149.367.272.814.272.448 0 .814.122.814.271 0 .15.244.272.543.272.298 0 .542.122.542.272 0 .149.187.271.414.271.539 0 2.842 2.307 2.842 2.846 0 .228.122.415.272.415.165 0 .27 1.268.27 3.26 0 1.993-.105 3.261-.27 3.261-.15 0-.272.245-.272.543 0 .299-.122.544-.271.544-.15 0-.271.185-.271.413 0 .501-3.376 3.934-3.87 3.934-.193 0-.528.245-.743.544-.215.298-.608.543-.874.543-.265 0-.482.122-.482.272 0 .149-.367.271-.814.271-.448 0-.814.123-.814.272 0 .15-.367.272-.814.272h-.814v-8.967c0-5.796-.096-8.966-.272-8.966-.149 0-.27-.244-.27-.543 0-.498.18-.544 2.17-.544z" fill="#fff"/></svg>