<svg width="39" height="42" viewBox="0 0 39 42" fill="none" xmlns="http://www.w3.org/2000/svg"><path d="M28.965 6c1.763 0 3.219.345 4.368 1.034a8.97 8.97 0 012.874 2.76c.843 1.225 1.38 2.604 1.61 4.137.306 1.533.459 2.912.459 4.138 0 3.755-.958 7.203-2.874 10.345-1.915 3.142-4.904 5.67-8.965 7.586l-1.035-2.069c2.3-.996 4.291-2.529 5.977-4.598s2.606-4.176 2.759-6.321c.077-1.15 0-2.223-.23-3.219-1.38 1.303-3.065 1.954-5.057 1.954-2.223 0-4.1-.69-5.633-2.069-1.532-1.38-2.299-3.295-2.299-5.747 0-2.375.767-4.291 2.3-5.747C24.827 6.728 26.742 6 28.964 6zM8.046 6c1.762 0 3.218.345 4.368 1.034a8.971 8.971 0 012.873 2.76c.843 1.225 1.38 2.604 1.61 4.137.306 1.533.46 2.912.46 4.138 0 3.755-.959 7.203-2.874 10.345-1.916 3.142-4.904 5.67-8.966 7.586l-1.034-2.069c2.299-.996 4.29-2.529 5.977-4.598 1.686-2.069 2.605-4.176 2.758-6.321.077-1.15 0-2.223-.23-3.219-1.379 1.303-3.065 1.954-5.057 1.954-2.222 0-4.1-.69-5.632-2.069C.766 18.298 0 16.383 0 13.931c0-2.375.766-4.291 2.299-5.747C3.908 6.728 5.824 6 8.046 6z" fill="#8D0327"/></svg>