<svg width="86" height="1010" viewBox="0 0 86 1010" fill="none" xmlns="http://www.w3.org/2000/svg"><path opacity=".1" d="M60.786 505.53c18.565-2.113 20.963-1.904 23.75 2.072 2.274 3.243 1.94 5.49-1.293 8.721-3.38 3.377-4.11 3.421-22.112 1.337-7.224-.837-15.24-1.374-17.813-1.192l-4.677.328 3.914 1.812c2.153.997 10.553 3.457 18.667 5.467 15.794 3.913 18.438 4.92 19.384 7.382 1.189 3.097.571 7.315-1.353 9.238-3.455 3.452-7.456 2.499-24.592-5.856-8.81-4.296-16.888-7.816-17.95-7.823-1.871-.012-1.866.053.16 2.076 1.148 1.149 8.613 6.539 16.587 11.979C68.875 551.59 70.75 553.766 68.909 559c-1.22 3.463-5.15 5.662-8.583 4.801-1.582-.396-8.122-6.161-16.258-14.33-13.082-13.133-17.214-16.378-14.602-11.466 1.976 3.714 5.985 9.763 10.21 15.402 8.113 10.829 11.196 15.923 11.166 18.445-.081 6.73-8.6 10.082-13.072 5.144-.827-.914-3.517-6.265-5.979-11.892-8.246-18.854-13.212-27.64-13.212-23.376 0 1.7 1.96 9.42 5.985 23.582 2.09 7.354 3.801 14.301 3.801 15.44 0 1.139-1.761 3.797-3.914 5.905l-3.915 3.834v191.136c0 105.123.273 191.846.607 192.715.334.869 2.477 2.866 4.761 4.437 5.542 3.81 7.685 8.468 7.17 15.586-.57 7.877-5.71 13.817-13.271 15.327-13.61 2.72-24.577-12.884-17.68-25.148 1.175-2.089 2.41-3.8 2.745-3.8.334 0 2.234-1.489 4.224-3.31l3.615-3.31-.03-198.378c-.016-115.512-.417-203.485-.958-210.602-.51-6.723-1.222-17.977-1.581-25.009-.714-13.967-.874-13.451 5.32-17.12 3.342-1.98 6.057-6.906 6.057-10.989 0-4.762-2.149-8.443-6.935-11.879l-4.808-3.452.021-6.113c.012-3.363.66-14.915 1.44-25.672 1.172-16.144 1.425-55.334 1.447-224.61l.028-205.053-4.829-4.068C2.19 26.38-.02 22.239.001 16.4.048 4.121 13.326-3.79 24.408 1.858c5.06 2.58 8.082 7.044 8.63 12.746.673 6.99-1.127 11.052-7.19 16.228l-5.311 4.534V432.03l3.914 4.52c2.153 2.486 3.914 5.432 3.914 6.547 0 1.115-1.938 8.462-4.307 16.328-2.37 7.866-4.603 16.497-4.961 19.182l-.653 4.881 2-2.444c1.673-2.047 9.382-18.103 14.417-30.028 3.032-7.182 9.113-9.226 13.726-4.616 3.882 3.879 2.729 7.506-6.285 19.764-13.638 18.549-15.528 21.725-12.927 21.725.556 0 7.271-6.381 14.924-14.18 12.917-13.163 14.172-14.179 17.512-14.179 6.137 0 9.63 6.527 6.152 11.489-.827 1.181-8.04 6.575-16.028 11.988-7.988 5.414-15.306 10.707-16.262 11.763-1.667 1.84-1.667 1.92.01 1.92.963 0 9.51-3.741 18.993-8.312 9.484-4.572 18.174-8.312 19.31-8.312 3.676 0 7.224 3.66 7.224 7.451 0 5.699-2.76 7.268-20.702 11.774-8.798 2.209-17.317 4.553-18.931 5.208l-2.936 1.193 2.372.909c1.591.609 8.102.257 19.773-1.071z" fill="#fff"/></svg>