<svg width="14" height="77" viewBox="0 0 14 77" fill="none" xmlns="http://www.w3.org/2000/svg"><g clip-path="url(#clip0_1135_682)"><path d="M7 20.81l-5-5.063V1h300v14.747l-5 5.063m-290 0l5-5.063V1M7 20.81l-5 5.063 5 5.064M7 20.81l5 5.063-5 5.064m0 0L2 36l5 5.063m0-10.126L12 36l-5 5.063m0 0l-5 5.064 5 5.063m0-10.127l5 5.064-5 5.063m0 0l-5 5.063V76h300V56.253l-5-5.063m-290 0l5 5.063V76M292 1v14.747l5 5.063M292 76V56.253l5-5.063m0-30.38l-5 5.063 5 5.064m0-10.127l5 5.063-5 5.064m0 0L292 36l5 5.063m0-10.126L302 36l-5 5.063m0 0l-5 5.064 5 5.063m0-10.127l5 5.064-5 5.063" stroke="#ffff" stroke-width="3"/></g><defs><clipPath id="clip0_1135_682"><path fill="#fff" transform="translate(-808 -700)" d="M0 0h1920v1040H0z"/></clipPath></defs></svg>