<svg width="219" height="57" viewBox="0 0 219 57" fill="none" xmlns="http://www.w3.org/2000/svg"><path d="M208.9 2H10.1v10.421L6.55 16l3.55 3.578-3.55 3.578 3.55 3.578-3.55 3.578 3.55 3.578-3.55 3.578 3.55 3.579V55h198.8V41.046l3.55-3.578-3.55-3.579 3.55-3.578-3.55-3.578 3.55-3.578-3.55-3.578L212.45 16l-3.55-3.578V2z" fill="#8D0327"/><path d="M6.55 16L3 12.42V2h213v10.421L212.45 16M6.55 16l3.55-3.578V2h198.8v10.421L212.45 16M6.55 16L3 19.577l3.55 3.578m0-7.156l3.55 3.578-3.55 3.578m0 0L3 26.733l3.55 3.578m0-7.156l3.55 3.578-3.55 3.578m0 0L3 33.89l3.55 3.578m0-7.156l3.55 3.578-3.55 3.578m0 0L3 41.047V55h213V41.046l-3.55-3.578m-205.9 0l3.55 3.578V55h198.8V41.046l3.55-3.578m0-21.469l-3.55 3.578 3.55 3.578m0-7.156l3.55 3.578-3.55 3.578m0 0l-3.55 3.578 3.55 3.578m0-7.156l3.55 3.578-3.55 3.578m0 0l-3.55 3.578 3.55 3.578m0-7.156L216 33.89l-3.55 3.578" stroke="#8D0327" stroke-width="3"/></svg>