<svg width="32" height="23" viewBox="0 0 32 23" fill="none" xmlns="http://www.w3.org/2000/svg"><path d="M0 5.406c0-1.649.566-2.962 1.7-3.94C2.831.49 4.215 0 5.852 0c2.202 0 3.964.641 5.286 1.924 1.321 1.283 1.982 3.207 1.982 5.773 0 2.444-.378 4.582-1.133 6.415-.692 1.771-1.573 3.268-2.643 4.49-1.007 1.221-2.077 2.199-3.21 2.932-1.132.672-2.139 1.16-3.02 1.466L.283 19.243c1.762-.855 3.273-1.955 4.531-3.299 1.322-1.344 1.982-3.054 1.982-5.131-.251.06-.629.091-1.132.091-1.448 0-2.77-.519-3.965-1.557C.566 8.308 0 6.995 0 5.407zm18.88 0c0-1.649.565-2.962 1.698-3.94C21.711.49 23.095 0 24.732 0c2.202 0 3.964.641 5.286 1.924C31.339 3.207 32 5.131 32 7.697c0 2.444-.378 4.582-1.133 6.415-.692 1.771-1.573 3.268-2.643 4.49-1.007 1.221-2.076 2.199-3.21 2.932-1.132.672-2.139 1.16-3.02 1.466l-2.832-3.757c1.762-.855 3.273-1.955 4.531-3.299 1.322-1.344 1.982-3.054 1.982-5.131-.251.06-.629.091-1.132.091-1.448 0-2.77-.519-3.965-1.557-1.133-1.039-1.699-2.352-1.699-3.94z" fill="#8F98A5"/></svg>