<svg width="32" height="23" viewBox="0 0 32 23" fill="none" xmlns="http://www.w3.org/2000/svg"><path d="M13.12 17.594c0 1.649-.565 2.962-1.698 3.94C10.289 22.51 8.905 23 7.268 23c-2.202 0-3.964-.641-5.286-1.924C.661 19.793 0 17.869 0 15.303c0-2.444.346-4.551 1.038-6.323.756-1.833 1.637-3.36 2.643-4.582 1.07-1.221 2.172-2.168 3.304-2.84C8.118.825 9.125.305 10.005 0l2.833 3.757a16.58 16.58 0 00-4.626 3.299C6.954 8.4 6.324 10.11 6.324 12.187c.252-.06.63-.091 1.133-.091 1.448 0 2.738.519 3.87 1.557 1.196 1.039 1.794 2.352 1.794 3.94zm18.88 0c0 1.649-.566 2.962-1.7 3.94C29.169 22.51 27.785 23 26.149 23c-2.203 0-3.965-.641-5.287-1.924-1.321-1.283-1.982-3.207-1.982-5.773 0-2.444.346-4.551 1.038-6.323.756-1.833 1.637-3.36 2.643-4.582 1.07-1.221 2.172-2.168 3.304-2.84C26.997.825 28.004.305 28.885 0l2.832 3.757a16.582 16.582 0 00-4.626 3.299c-1.258 1.344-1.888 3.054-1.888 5.131.252-.06.63-.091 1.133-.091 1.448 0 2.738.519 3.87 1.557C31.402 14.692 32 16.005 32 17.593z" fill="#8F98A5"/></svg>