<svg width="282" height="18" viewBox="0 0 282 18" fill="none" xmlns="http://www.w3.org/2000/svg"><path d="M99.586 8.757l7.48 6.232L123.41 2.801l7.202 5.956-7.202 6.232-16.344-12.188-7.48 5.956zm51.386 0l7.48 6.232 16.344-12.188 7.202 5.956-7.202 6.232-16.344-12.188-7.48 5.956z" stroke="#8D0327" stroke-width="1.662"/><path d="M282 8.202V9.31h-88.921c-.878.462-2.632 2.05-2.632 4.71-.554-.739-1.413-2.466-.416-3.463-1.108-.139-2.077.415-3.324-1.8 1.247-2.217 2.216-1.663 3.324-1.801-.997-.997-.138-2.724.416-3.463 0 2.66 1.754 4.248 2.632 4.71H282zM0 9.31V8.202h88.921c.878-.461 2.632-2.05 2.632-4.709.554.739 1.413 2.466.416 3.463 1.108.138 2.077-.416 3.324 1.8-1.247 2.216-2.216 1.662-3.324 1.801.997.997.138 2.724-.416 3.463 0-2.66-1.754-4.248-2.632-4.71H0z" fill="#8D0327"/><circle cx="140.723" cy="8.756" r="4.709" fill="#8D0327"/><circle cx="140.723" cy="8.756" r="7.756" stroke="#8D0327" stroke-width="1.939"/></svg>