<svg width="38" height="48" viewBox="0 0 38 48" fill="none" xmlns="http://www.w3.org/2000/svg"><path d="M33.4 4.8h-5.022A1.595 1.595 0 0027 4l-2.629.026A5.594 5.594 0 0013.64 4H11a1.594 1.594 0 00-1.378.8H4.6a4.005 4.005 0 00-4 4V44a4.005 4.005 0 004 4h28.8a4.005 4.005 0 004-4V8.8a4.005 4.005 0 00-4-4zM11 11.2h16a1.6 1.6 0 001.6-1.6h4v33.6H5.4V9.6h4a1.6 1.6 0 001.6 1.6zm2.64-5.6a1.59 1.59 0 001.526-1.128 3.996 3.996 0 017.668 0A1.59 1.59 0 0024.36 5.6H27v4H11v-4h2.64zM35.8 44a2.4 2.4 0 01-2.4 2.4H4.6A2.4 2.4 0 012.2 44V8.8a2.4 2.4 0 012.4-2.4h4.8V8h-4a1.6 1.6 0 00-1.6 1.6v33.6a1.6 1.6 0 001.6 1.6h27.2a1.6 1.6 0 001.6-1.6V9.6A1.6 1.6 0 0032.6 8h-4V6.4h4.8a2.4 2.4 0 012.4 2.4V44z" fill="#8D0327"/><path d="M19 8a2.4 2.4 0 100-4.8A2.4 2.4 0 0019 8zm0-3.2a.8.8 0 110 1.6.8.8 0 010-1.6zm-8.8 27.12V34a6.8 6.8 0 1013.6 0v-5.248a8.153 8.153 0 007.2-8.198V16a2.4 2.4 0 00-2.4-2.4h-3.2a.8.8 0 000 1.6h3.2a.8.8 0 01.8.8v4.554a6.542 6.542 0 01-5.972 6.632A6.4 6.4 0 0116.6 20.8V16a.8.8 0 01.8-.8h3.2a.8.8 0 000-1.6h-3.2A2.4 2.4 0 0015 16v4.8a8.03 8.03 0 002.53 5.84 7.913 7.913 0 004.67 2.12V34a5.2 5.2 0 11-10.4 0v-2.08a4 4 0 10-1.6 0zm.8-6.32a2.4 2.4 0 110 4.8 2.4 2.4 0 010-4.8z" fill="#8D0327"/></svg>