<svg width="48" height="48" viewBox="0 0 48 48" fill="none" xmlns="http://www.w3.org/2000/svg"><g clip-path="url(#clip0_1180_369)" fill="#8D0327"><path d="M9.938 17.813c0 7.754 6.308 14.062 14.062 14.062s14.063-6.308 14.063-14.063c0-7.753-6.31-14.062-14.063-14.062-7.754 0-14.063 6.308-14.063 14.063zM24 5.624c6.72 0 12.188 5.467 12.188 12.188C36.188 24.532 30.72 30 24 30c-6.72 0-12.188-5.467-12.188-12.188 0-6.72 5.468-12.187 12.188-12.187z"/><path d="M15.318 16.141l3.634 3.58-.836 5.033a.937.937 0 001.357.985L24 23.39l4.527 2.35a.937.937 0 001.357-.985l-.836-5.032 3.634-3.58a.937.937 0 00-.519-1.596l-5.043-.759-2.282-4.563a.937.937 0 00-1.677 0l-2.282 4.563-5.043.76a.937.937 0 00-.518 1.594zm6.322-.572a.938.938 0 00.7-.508L24 11.74l1.66 3.322a.938.938 0 00.7.508l3.67.552-2.645 2.606a.94.94 0 00-.267.822l.609 3.662-3.295-1.71a.935.935 0 00-.864 0l-3.295 1.71.608-3.662a.937.937 0 00-.267-.822L17.97 16.12l3.67-.552zM24.938.938a.937.937 0 11-1.875 0 .937.937 0 011.875 0z"/><path d="M19.582.553a17.796 17.796 0 00-13.395 17.26 17.76 17.76 0 005.864 13.208l-5.648 9.954a.938.938 0 001.006 1.38l6.414-1.331 2.255 6.352a.937.937 0 001.698.15L24 36.584l6.224 10.942a.937.937 0 001.698-.15l2.254-6.352 6.414 1.331a.938.938 0 001.006-1.38l-5.648-9.954a17.757 17.757 0 005.864-13.208c0-8.15-5.508-15.247-13.394-17.26a.937.937 0 10-.464 1.817 15.922 15.922 0 0111.983 15.443c0 8.874-7.207 15.937-15.937 15.937-8.736 0-15.938-7.069-15.938-15.937A15.922 15.922 0 0120.046 2.37a.938.938 0 00-.463-1.817zM17.16 44.818l-1.843-5.192a.937.937 0 00-1.074-.604l-5.187 1.077 4.47-7.878a17.851 17.851 0 008.902 3.334l-5.268 9.263zm16.597-5.796a.938.938 0 00-1.075.604l-1.842 5.192-5.268-9.263a17.853 17.853 0 008.902-3.334l4.47 7.878-5.187-1.077z"/></g><defs><clipPath id="clip0_1180_369"><path fill="#fff" d="M0 0h48v48H0z"/></clipPath></defs></svg>