<svg width="48" height="48" viewBox="0 0 48 48" fill="none" xmlns="http://www.w3.org/2000/svg"><path d="M37.602 31.99c-2.557 0-11.595 2.191-16.4 1.554C6.029 31.521 10.44 32.036 9.653 31.99c-2.96-.394-4.833 3.999-4.833 7.493 0 3.493 1.817 7.886 4.833 7.493l11.549-1.546c3.128-.412 4.027-.084 16.279 1.546 3.025.393 4.805-4.056 4.805-7.493 0-4.206-2.061-7.493-4.684-7.493zM20.743 43.603l-7.783 1.03a11.128 11.128 0 000-10.303l7.783 1.03a9.189 9.189 0 010 8.243zM10.44 44.737v-5.255h1.873c0 2.539-.87 4.478-1.873 5.255zm-.6-10.818c.937.262 1.92 1.648 2.305 3.69H9.504a.937.937 0 00-.937.937v6.191c-3.11-2.398-2.07-11.268 1.274-10.818zm13.03 9.497a11.698 11.698 0 000-7.867c.557.038 1.118.038 1.676 0a9.292 9.292 0 010 7.886 16.747 16.747 0 00-1.677-.019zm14.732 1.686l-11.061-1.48a11.67 11.67 0 000-8.28l11.061-1.48c1.321 0 2.81 2.333 2.81 5.62 0 3.288-1.451 5.62-2.81 5.62zm6.557-24.184V13.35l.384-.178a.936.936 0 000-1.704C22.176 1.296 23.722 1.848 23.169 2.1.839 12.245 2.01 11.458 2.01 12.32c0 .862-.046.58 9.367 4.861v7.315c0 6.22 24.352 6.238 24.352 0v-7.315l6.557-2.988v6.716a2.81 2.81 0 00-1.874 2.65v3.747a.937.937 0 00.937.937h3.747a.937.937 0 00.936-.937V23.56a2.81 2.81 0 00-1.873-2.642zM23.553 3.984l16.279 7.4H23.553a.937.937 0 000 1.873h16.279l-16.279 7.399-18.34-8.336 18.34-8.336zm10.303 20.512c0 .937-3.634 2.81-10.303 2.81-6.669 0-10.303-1.873-10.303-2.81v-6.462c10.659 4.842 10.134 4.758 10.687 4.505l9.919-4.506v6.463zm10.303 1.873h-1.873v-2.81a.936.936 0 111.873 0v2.81z" fill="#8D0327"/></svg>