<svg width="475" height="480" viewBox="0 0 475 480" fill="none" xmlns="http://www.w3.org/2000/svg"><g opacity=".1" fill="#8D0327"><path d="M172.926 131.844c-9.007-11.874-11.938-17.494-12.225-23.435-.277-5.716 4.376-9.53 10.713-8.783 8.543 1.007 19.335 8.823 34.684 25.125 12.934 13.738 14.198 15.608 17.433 25.781l3.487 10.967 7.837-.242c9.447-.291 14.044 3.573 16.915 14.221l1.987 7.374 8.13-.789c10.54-1.022 18.378 3.023 22.721 11.722 8.884 17.799-11.448 38.546-29.083 29.677-8.337-4.193-11.917-10.569-11.899-21.191.017-10.563-.627-11.561-8.019-12.432-8.113-.956-12.24-6.132-12.65-15.866l-.349-8.354-10.032-3.3c-13.532-4.452-28.835-16.215-39.65-30.475zM-324.867 716.21c-1.982-1.982-2.07-13.01-.143-17.894 1.151-2.911 3.3-6.544 4.776-8.073 4.059-4.2 13.704-7.651 17.874-6.395 6.482 1.953 6.59 3.789.287 4.86-10.024 1.701-14.693 6.23-18.547 17.984-1.869 5.701-3.781 9.984-4.247 9.518zM744.955-354.144c-2.439-2.439-3.453-12.601-1.695-16.988 2.176-5.436 12.094-13.042 18.258-14.002 5.352-.834 17.634 2.054 17.63 4.145-.001.583-4.062 1.274-9.026 1.534-14.611.765-19.913 6.029-22.629 22.462-.657 3.971-1.015 4.372-2.538 2.849zM-304.338 711.741c-1.32-.587-2.398-2.887-2.394-5.113.005-2.674.811-4.048 2.374-4.051 3.322-.005 7.336 7.31 5.191 9.455-.975.975-1.997 1.548-2.271 1.274-.275-.275-1.58-.979-2.9-1.565zM766.057-356.924c-2.521-1.128-5.047-3.094-5.612-4.367-.565-1.274.095-3.082 1.467-4.018 3.236-2.207 9.462 2.669 9.045 7.083-.267 2.839-1.02 3.039-4.9 1.302z"/><path d="M110.174 357.648c-11.073-23.002-8.521-49.596 6.813-70.976 3.026-4.216 7.055-9.343 8.956-11.392 5.033-5.426 25.868-20.093 35.124-24.725 37.095-18.566 89.279-23.484 123.158-11.608 12.736 4.465 18.622 4.532 19.645.223.235-.986-1.481-8.199-3.813-16.027-11.903-39.964-6.866-87.23 13.425-125.986 24.104-46.04 63.884-65.56 101.7-49.904 6.242 2.584 12.836 4.553 14.653 4.375 4.278-.417 356.008-351.596 360.738-360.172 1.633-2.965 4.771-6.554 6.97-7.974 3.717-2.402 4.421-2.162 9.984 3.401l5.986 5.985-7.142 5.427c-8.274 6.283-360.206 355.93-363.219 360.859-1.451 2.372-.967 5.063 1.739 9.654 7.822 13.275 9.022 16.773 9.6 28.006.824 16.007-3.194 27.439-13.213 37.582-13.038 13.202-27.769 16.02-44.513 8.515-8.061-3.614-9.815-5.043-13.131-10.71-13.453-22.982 3.808-49.616 27.48-42.405 7.174 2.186 9.8 7.14 5.868 11.073-1.691 1.691-4.61 1.511-9.952-.618-8.491-3.385-13.073-2.609-18.862 3.195-13.063 13.091-4.198 35.47 15.575 39.323 12.683 2.471 21.726-.307 30.938-9.504 8.529-8.515 12.429-17.75 12.831-30.375.428-13.457-2.891-21.162-13.75-31.925-12.057-11.949-24.141-17.488-39.922-18.302-48.836-2.514-90.656 61.634-89.767 137.702.218 18.666 2.783 41.452 5.704 50.672 2.357 7.436-.363 10.021-7.478 7.108-7.645-3.128-40.786-5.998-61.514-5.326-46.868 1.518-92.965 21.782-113.567 49.919-19.344 26.421-17.406 56.442 5.137 79.634 10.301 10.597 14.973 12.773 29.385 13.686 19.048 1.205 39.054-12.208 42.154-28.265 2.467-12.782-.306-22.77-8.682-31.27-4.149-4.212-4.344-4.818-1.292-4.014 5.022 1.325 12.551 13.755 14.334 23.665 3.168 17.587-10.543 38.37-29.406 44.572-15.545 5.112-32.22 2.662-48.733-7.162-4.587-2.728-7.255-3.217-9.634-1.764-4.918 3.002-355.903 356.242-361.246 363.568-5.381 7.376-9.488 7.944-14.228 1.967-4.215-5.314-1.37-12.816 6.464-17.047 8.864-4.789 360.979-357.21 361.666-361.981.276-1.915-1.057-6.722-2.963-10.679zm752.11-748.943c-1.817-9.572-8.598-16.367-19.2-19.239-9.09-2.463-8.865-3.974.718-4.815 7.885-.691 16.778 3.379 20.899 9.571 3.509 5.271 4.146 16.605 1.104 19.647-1.896 1.896-2.289 1.322-3.521-5.164zM-346.802 805.82c-6.442-4.4-11.69-14.175-10.675-19.884 1.245-7.007 2.496-6.867 4.719.529 3.009 10.012 8.906 15.114 19.275 16.678 6.316.954 8.205 1.809 6.893 3.121-3.363 3.363-15.014 3.107-20.212-.444zm43.366-61.806c-5.31.407-6.21-.017-6.487-3.057-.462-5.059 1.928-6.69 7.018-4.794 9.708 3.616 9.473 7.082-.531 7.851zM802.801-361.59c-.02 11.955-2.983 12.63-7.456 1.701-2.658-6.493-2.178-7.643 3.561-8.543 3.745-.588 3.907-.304 3.895 6.842zM-330.427 785.1c-3.631 5.666-7.514 5.987-7.505.619.008-4.608.132-4.771 4.74-6.174 5.121-1.558 6.083.376 2.765 5.555zM844.599-386.564c-5.565 3.007-6.471 2.997-7.399-.081-1.321-4.382 5.474-10.514 10.404-9.388 5.738 1.311 4.421 5.46-3.005 9.469z"/><path d="M156.411 357.026c-4.614-1.39-7.568-11.418-5.919-20.089 2.156-11.331 12.169-18.583 26.033-18.856 10.296-.203 11.819 1.88 1.861 2.544-6.068.403-9.069 1.663-12.76 5.353-6.672 6.672-7.546 10.939-4.046 19.723 3.277 8.223 1.012 13.187-5.169 11.325zm-460.284 490.436c-8.63-4.959-12.688-11.585-11.988-19.572 1.023-11.658 3.485-11.395 6.336.679 2.295 9.718 6.841 14.278 16.977 17.024 4.388 1.188 7.544 2.597 7.013 3.128-2.625 2.625-12.794 1.926-18.338-1.259zM884.667-367.644c-4.217-.267-7.999-.817-8.405-1.223-1.871-1.871 3.492-4.293 10.547-4.763 12.924-.86 21.719 7.457 22.156 20.955.281 8.667-1.666 9.521-4.111 1.804-.961-3.034-4.171-7.939-7.134-10.902-4.283-4.283-6.956-5.486-13.053-5.871zM-291.573 830.898c-4.088 1.244-7.499-1.117-5.983-4.14 1.196-2.39 9.761-6.446 10.998-5.208 2.011 2.01-1.324 8.225-5.015 9.348zM880.388-343.284c-2.956-.891-3.181-1.596-1.366-4.275 6.18-9.117 10.839-11.013 11.421-4.647.426 4.673-5.805 10.203-10.055 8.922zM-244.985 803.355c-5.099 1.551-6.984-1.128-6.297-8.956.326-3.724 1.15-7.328 1.828-8.006 1.548-1.548 5.829 5.304 7.128 11.405.775 3.643.288 4.66-2.659 5.557zM860.971-300.172c-.725.726-13.278-3.901-14.853-5.476-1.537-1.536 2.53-2.961 9.278-3.251 7.277-.314 7.48-.205 6.955 3.783-.297 2.259-.918 4.482-1.38 4.944zM-210.025 801.02c-3.785 1.693-7.632-.5-9.452-5.387-2.353-6.317.942-8.148 6.921-3.842 5.676 4.087 6.591 7.417 2.531 9.229zM859.232-270.962c.641 7.016-4.965 6.387-8.239-.926-1.083-2.421-1.429-4.946-.767-5.608 1.942-1.942 8.679 2.946 9.006 6.534z"/><path d="M-193.005 809.905c-5.886 9.189-19.297 13.072-29.428 8.521-5.391-2.423-4.41-4.086 2.222-3.767 12.278.592 21.925-6.774 24.181-18.46 1.696-8.785 2.028-9.274 3.794-5.583 2.338 4.885 1.931 15.076-.769 19.289zM855.361-254.194c9.307-2.211 15.508-9.054 17.847-19.694 1.055-4.804 2.237-8.767 2.622-8.809.386-.04 1.474 2.365 2.418 5.346 2.317 7.313-2.282 20.471-8.686 24.858-5.399 3.698-15.865 4.697-18.771 1.791-1.69-1.69-1.093-2.146 4.57-3.492z"/></g></svg>