<svg width="19" height="233" viewBox="0 0 19 233" fill="none" xmlns="http://www.w3.org/2000/svg"><path d="M1.82 215.33c-.76-.554-1.463-1.65-1.71-2.671-.097-.396-.134-.857-.084-1.024.051-.167.093-.511.093-.764s.357-.809.793-1.235c.676-.661.954-.775 1.884-.775.895 0 1.214.12 1.773.666.458.448.682.897.682 1.368 0 .745-.691 1.614-1.283 1.614-.495 0-.434-.539.117-1.026.256-.227.466-.551.466-.72 0-.547-.909-1.218-1.65-1.218-.483 0-.942.218-1.4.666-.585.572-.682.842-.682 1.894 0 1.088.085 1.306.758 1.928 1.08 1 1.612 1.212 3.03 1.212 1.606 0 3.177-.919 4.087-2.392.35-.565.7-1.028.778-1.028.078 0 .467.512.866 1.138.43.676 1.179 1.424 1.842 1.841 1.023.641 1.257.695 2.719.62 1.534-.079 1.637-.122 2.508-1.034.81-.849.908-1.077.908-2.118 0-.985-.106-1.27-.682-1.833-.818-.799-1.892-.886-2.584-.21-.592.578-.594 1.185-.006 1.705.484.428.434.803-.108.803-.834 0-1.35-1.485-.908-2.612.193-.492 1.308-1.037 2.118-1.035.886.001 2.07.743 2.508 1.573.52.982.449 2.48-.167 3.543-.762 1.314-1.795 1.815-4.02 1.951l-1.866.114-.65 1.254c-.903 1.743-.748 2.155 1.125 2.985.83.367 1.507.779 1.507.914 0 .136-.233.431-.518.656l-.518.41.635 1.226c1.087 2.1.796 3.313-1.392 5.812-.643.735-1.505 1.824-1.915 2.419-.782 1.135-1.018 1.268-1.41.798-4.816-5.763-5.243-6.674-4.219-8.999.477-1.085.487-1.2.137-1.721-.422-.629-.393-.666 1.123-1.418.497-.246 1.053-.672 1.237-.945.3-.448.27-.619-.305-1.716-.35-.67-.708-1.373-.794-1.561-.116-.251-.693-.374-2.164-.461-1.538-.091-2.16-.23-2.659-.594zM.92 23.143c-.424-.439-.814-1.08-.867-1.425-.258-1.678.428-3.2 1.881-4.173.647-.433 1.161-.553 2.572-.6 1.074-.035 1.865-.172 2.024-.35.143-.16.455-.878.692-1.595.522-1.573.389-1.813-1.446-2.607-1.353-.586-1.475-.835-.707-1.443l.518-.41-.635-1.226c-1.1-2.125-.755-3.441 1.6-6.122.716-.815 1.506-1.867 1.755-2.337.249-.47.598-.855.776-.855.178 0 .683.487 1.123 1.083.44.596 1.299 1.647 1.908 2.337 2.09 2.367 2.548 3.985 1.668 5.893-.425.92-.428 1.012-.06 1.62.424.702.283.954-.695 1.247-.807.242-1.71 1.04-1.71 1.512 0 .239.209.77.465 1.18.256.411.466 1.026.466 1.366.002.834.578 1.091 2.447 1.091.915 0 1.819.14 2.22.342 2.25 1.137 2.821 4.64.987 6.05-.882.678-2.7.619-3.447-.111-.725-.71-.777-1.977-.106-2.633.854-.835 1.548-.312.724.545-.615.64-.621 1.093-.021 1.624 1.24 1.097 3.263-.115 3.263-1.956 0-1.929-1.273-3.155-3.451-3.326-1.175-.092-1.478-.021-2.576.608-.85.487-1.474 1.075-1.973 1.86l-.73 1.146-.417-.504c-.23-.276-.418-.626-.418-.777 0-.421-1.39-1.714-2.37-2.202-1.045-.521-2.758-.57-3.679-.104-1.177.595-1.882 1.635-1.882 2.777 0 1.695.704 2.57 2.08 2.582 1.436.013 2.121-1.103 1.186-1.93-.551-.488-.612-1.027-.117-1.027.55 0 1.283.854 1.283 1.494 0 .743-.572 1.83-1.06 2.013-.208.078-.856.142-1.44.142-.91 0-1.17-.114-1.831-.799zm8.814 182.068c-.503 2.152-.64-.641-.755-15.389-.177-22.558-.193-124.277-.024-144.675.138-16.588.27-19.505.78-17.328.274 1.166.628 51.198.628 88.696 0 37.385-.355 87.525-.629 88.696z" fill="#8D0327"/></svg>