<svg width="18" height="20" viewBox="0 0 18 20" fill="none" xmlns="http://www.w3.org/2000/svg"><path d="M9 19A8 8 0 109 3a8 8 0 000 16z" stroke="#8D0327" stroke-width="1.5" stroke-miterlimit="10" stroke-linecap="round" stroke-linejoin="round"/><path d="M12.197 9.753a.75.75 0 10-1.06-1.06l1.06 1.06zm-4.086 3.025l-.53.53a.75.75 0 001.06 0l-.53-.53zM6.864 10.47a.75.75 0 10-1.061 1.06l1.06-1.06zm4.272-1.778l-3.555 3.556 1.06 1.06 3.556-3.555-1.06-1.06zm-2.495 3.556L6.864 10.47l-1.061 1.06 1.778 1.779 1.06-1.061z" fill="#8D0327"/></svg>