<svg width="306" height="79" viewBox="0 0 306 79" fill="none" xmlns="http://www.w3.org/2000/svg"><path d="M8 21.81l-5-5.063V2h300v14.747l-5 5.063m-290 0l5-5.063V2M8 21.81l-5 5.063 5 5.064M8 21.81l5 5.063-5 5.064m0 0L3 37l5 5.063m0-10.126L13 37l-5 5.063m0 0l-5 5.064 5 5.063m0-10.127l5 5.064-5 5.063m0 0l-5 5.063V77h300V57.253l-5-5.063m-290 0l5 5.063V77M293 2v14.747l5 5.063M293 77V57.253l5-5.063m0-30.38l-5 5.063 5 5.064m0-10.127l5 5.063-5 5.064m0 0L293 37l5 5.063m0-10.126L303 37l-5 5.063m0 0l-5 5.064 5 5.063m0-10.127l5 5.064-5 5.063" stroke="#8D0327" stroke-width="3"/></svg>