<svg width="279" height="57" viewBox="0 0 279 57" fill="none" xmlns="http://www.w3.org/2000/svg"><path d="M269.4 2H9.576v10.421L6.026 16l3.55 3.578-3.55 3.578 3.55 3.578-3.55 3.578 3.55 3.578-3.55 3.578 3.55 3.579V55H269.4V41.046l3.55-3.578-3.55-3.579 3.55-3.578-3.55-3.578 3.55-3.578-3.55-3.578L272.95 16l-3.55-3.578V2z" fill="#8D0327"/><path d="M6.026 16l-3.55-3.579V2H276.5v10.421L272.95 16M6.026 16l3.55-3.578V2H269.4v10.421L272.95 16M6.026 16l-3.55 3.578 3.55 3.578m0-7.156l3.55 3.578-3.55 3.578m0 0l-3.55 3.578 3.55 3.578m0-7.156l3.55 3.578-3.55 3.578m0 0l-3.55 3.578 3.55 3.578m0-7.156l3.55 3.578-3.55 3.578m0 0l-3.55 3.579V55H276.5V41.046l-3.55-3.578m-266.924 0l3.55 3.578V55H269.4V41.046l3.55-3.578m0-21.469l-3.55 3.578 3.55 3.578m0-7.156l3.55 3.578-3.55 3.578m0 0l-3.55 3.578 3.55 3.578m0-7.156l3.55 3.578-3.55 3.578m0 0l-3.55 3.578 3.55 3.578m0-7.156l3.55 3.578-3.55 3.578" stroke="#8D0327" stroke-width="3"/></svg>