<svg width="305" height="79" viewBox="0 0 305 79" fill="none" xmlns="http://www.w3.org/2000/svg"><path d="M295.213 2H10.263v14.747L6.37 21.81l3.893 5.063-3.893 5.064L10.263 37 6.37 42.063l3.893 5.064L6.37 52.19l3.893 5.063V77h284.95V57.253l3.894-5.063-3.894-5.063 3.894-5.064L295.213 37l3.894-5.063-3.894-5.064 3.894-5.063-3.894-5.063V2z" fill="#8D0327"/><path d="M6.37 21.81l-3.894-5.063V2H303v14.747l-3.893 5.063m-292.737 0l3.893-5.063V2h284.95v14.747l3.894 5.063m-292.737 0l-3.894 5.063 3.894 5.064m0-10.127l3.893 5.063-3.893 5.064m0 0L2.476 37l3.894 5.063m0-10.126L10.263 37 6.37 42.063m0 0l-3.894 5.064L6.37 52.19m0-10.127l3.893 5.064L6.37 52.19m0 0l-3.894 5.063V77H303V57.253l-3.893-5.063m-292.737 0l3.893 5.063V77h284.95V57.253l3.894-5.063m0-30.38l-3.894 5.063 3.894 5.064m0-10.127L303 26.873l-3.893 5.064m0 0L295.213 37l3.894 5.063m0-10.126L303 37l-3.893 5.063m0 0l-3.894 5.064 3.894 5.063m0-10.127L303 47.127l-3.893 5.063" stroke="#8D0327" stroke-width="3"/></svg>