<svg width="105" height="51" viewBox="0 0 105 51" fill="none" xmlns="http://www.w3.org/2000/svg"><path d="M90 22.341C64.853 31.411 76.103 46.673 54.265 48c-.883-.354-2.427-.442-3.53 0C28.897 46.673 40.147 31.41 15 22.341 34.853-2.654 42.132 45.567 49.412 45.567h.22C38.602 26.544 45.662 20.57 52.5 0c6.838 20.571 13.897 26.544 2.867 45.567h.221c7.28 0 14.559-48.221 34.412-23.226zM2.792 32C3.926 35.688 5.835 34.038 6 37.241a.914.914 0 000 .518C5.834 40.962 3.926 39.312 2.792 43c-3.124-2.912 2.904-3.98 2.904-5.047v-.032C3.318 39.538 2.57 38.503 0 37.5c2.571-1.003 3.318-2.038 5.696-.42v-.033c0-1.068-6.028-2.135-2.903-5.047zm99.415 0c-1.133 3.688-3.041 2.038-3.207 5.241a.914.914 0 010 .518c.166 3.203 2.074 1.553 3.207 5.241 3.125-2.912-2.903-3.98-2.903-5.047v-.032c2.378 1.617 3.124.582 5.696-.421-2.572-1.003-3.318-2.038-5.696-.42v-.033c0-1.068 6.028-2.135 2.903-5.047zm-88.001 8.236a.66.66 0 01-.665.653.66.66 0 01-.665-.654v-.015a.66.66 0 01.665-.638.66.66 0 01.665.654z" fill="#fff"/><path d="M12.877 40.22a.66.66 0 01.664-.638c0-1.306 2.882-2.613 2.882.436 0 2.439-1.921 3.484-2.882 3.484-2.217 0-3.99-1.742-3.99-4.79 0-5.445 5.69-6.897 8.645-6.752C32.16 31.524 34.154 58.093 51 49.164 34.154 55.698 34.82 30 18.196 30 10.216 30 8 35.662 8 38.711c0 3.049 1.55 6.099 5.54 6.099 3.192 0 3.842-3.194 3.768-4.791 0-3.485-4.433-3.485-4.432.202zm77.916.016c0 .36.298.653.665.653a.66.66 0 00.665-.654v-.015a.66.66 0 00-.665-.638.66.66 0 00-.665.654z" fill="#fff"/><path d="M92.123 40.22a.66.66 0 00-.665-.638c0-1.306-2.88-2.613-2.88.436 0 2.439 1.92 3.484 2.88 3.484 2.217 0 3.99-1.742 3.99-4.79 0-5.445-5.689-6.897-8.644-6.752C72.84 31.524 70.845 58.093 54 49.164 70.845 55.698 70.18 30 86.804 30 94.784 30 97 35.662 97 38.711c0 3.049-1.552 6.098-5.541 6.098-3.192 0-3.842-3.194-3.768-4.791 0-3.485 4.432-3.485 4.432.202z" fill="#fff"/></svg>