<svg width="48" height="48" viewBox="0 0 48 48" fill="none" xmlns="http://www.w3.org/2000/svg"><g clip-path="url(#clip0_1143_13)" fill="#8D0327"><path d="M6.188 5.85a.937.937 0 00-.938.937v7.5c0 .518.42.938.938.938h7.5a.937.937 0 100-1.875H7.125V6.787a.937.937 0 00-.938-.937z"/><path d="M11.41 10.994c.24 0 .48-.092.663-.275l3.694-3.694A.938.938 0 0014.44 5.7l-3.032 3.032-1.184-1.185A.938.938 0 008.9 8.872l1.848 1.847a.934.934 0 00.662.275zM5.25 41.425c0 .518.42.937.938.937h7.5c.517 0 .937-.42.937-.937v-7.5a.937.937 0 00-.938-.938h-7.5a.937.937 0 00-.937.938v7.5zm1.875-6.563h5.625v5.625H7.125v-5.625zM5.25 27.75c0 .518.42.938.938.938h7.5c.517 0 .937-.42.937-.938v-7.5a.937.937 0 00-.938-.938h-7.5a.937.937 0 00-.937.938v7.5zm1.875-6.563h5.625v5.625H7.125v-5.625z"/><path d="M40.969 24.188h-.282V8.25a2.816 2.816 0 00-2.812-2.813h-2.063V2.25c0-1.24-1.009-2.25-2.25-2.25H2.25C1.01 0 0 1.01 0 2.25v17.543a.937.937 0 101.875 0V2.25c0-.207.168-.375.375-.375h31.313c.206 0 .374.168.374.375v23.767c-1.49 1.376-2.437 3.407-2.437 5.67V40.5c0 2.193.887 4.168 2.297 5.54a.372.372 0 01-.234.085H2.25a.375.375 0 01-.375-.375V28.23a.937.937 0 10-1.875 0v17.52C0 46.99 1.01 48 2.25 48h31.313c.705 0 1.335-.327 1.748-.836.966.533 2.06.836 3.22.836h2.438C44.846 48 48 44.636 48 40.5v-8.813c0-4.135-3.154-7.5-7.031-7.5zm5.156 7.5v.843h-5.438v-6.468h.282c2.843 0 5.156 2.523 5.156 5.625zM35.812 7.313h2.063c.517 0 .938.42.938.937v15.938h-.282c-.963 0-1.882.207-2.718.583V7.312zm2.72 18.75h.28v6.468h-5.437v-.843c0-3.102 2.313-5.625 5.156-5.625zm2.437 20.062H38.53c-2.843 0-5.156-2.523-5.156-5.625v-6.094h12.75V40.5c0 3.102-2.313 5.625-5.156 5.625z"/><path d="M19.656 12.975h9.969a.937.937 0 100-1.875h-9.969a.937.937 0 100 1.875zm0-5.25h9.969a.937.937 0 100-1.875h-9.969a.937.937 0 100 1.875zm0 18.713h9.969a.937.937 0 100-1.875h-9.969a.937.937 0 100 1.875zm0-5.25h9.969a.937.937 0 100-1.875h-9.969a.937.937 0 100 1.875zm0 18.712h9.032a.937.937 0 100-1.875h-9.032a.937.937 0 100 1.875zm0-5.25h9.032a.937.937 0 100-1.875h-9.032a.937.937 0 100 1.875zM.938 24.938a.94.94 0 00.662-.275.945.945 0 00.275-.663c0-.247-.1-.488-.275-.663a.945.945 0 00-.663-.274c-.246 0-.488.1-.662.274A.945.945 0 000 24c0 .247.1.488.275.663a.945.945 0 00.662.274z"/></g><defs><clipPath id="clip0_1143_13"><path fill="#fff" d="M0 0h48v48H0z"/></clipPath></defs></svg>