<svg width="48" height="48" viewBox="0 0 48 48" fill="none" xmlns="http://www.w3.org/2000/svg"><g clip-path="url(#clip0_1143_31)" fill="#8D0327"><path d="M38.146 13.945c.518 0 .938-.42.938-.937V2.813A2.816 2.816 0 0036.27 0H2.146A2.816 2.816 0 00-.666 2.813v42.374A2.816 2.816 0 002.146 48h34.125a2.816 2.816 0 002.813-2.813v-6.906a.938.938 0 00-1.875 0v6.907c0 .516-.42.937-.938.937H2.146a.939.939 0 01-.937-.938V2.813c0-.517.42-.938.937-.938h34.125c.517 0 .938.42.938.938v10.195c0 .518.42.937.937.937z"/><path d="M19.209 5.063c-4.756 0-8.625 3.869-8.625 8.625a8.602 8.602 0 002.808 6.362 8.591 8.591 0 005.817 2.262 8.592 8.592 0 005.917-2.356 8.601 8.601 0 002.708-6.268c0-4.756-3.87-8.626-8.625-8.626zm0 15.375a6.714 6.714 0 01-4.077-1.376 4.657 4.657 0 014.077-2.375c1.716 0 3.253.914 4.077 2.375a6.714 6.714 0 01-4.077 1.375zm-1.5-7.125v-.61c0-.827.673-1.5 1.5-1.5s1.5.673 1.5 1.5v.61c0 .827-.673 1.5-1.5 1.5s-1.5-.673-1.5-1.5zm6.932 4.376a6.504 6.504 0 00-2.762-2.315 3.363 3.363 0 00.705-2.062v-.609a3.379 3.379 0 00-3.375-3.375 3.379 3.379 0 00-3.375 3.375v.61c0 .775.264 1.49.705 2.06a6.504 6.504 0 00-2.762 2.316 6.713 6.713 0 01-1.318-4.002 6.758 6.758 0 016.75-6.75 6.758 6.758 0 016.75 6.75c0 1.497-.49 2.881-1.318 4.002zm-.37 23.374H19.21a.938.938 0 000 1.874h5.062a.938.938 0 000-1.874zm0-5.25H10.96a.938.938 0 000 1.874h13.31a.938.938 0 000-1.874zm0-5.25H10.96a.938.938 0 000 1.875h13.31a.938.938 0 000-1.876zM7.618 25.587a.945.945 0 00-.664-.274c-.247 0-.489.1-.663.274a.945.945 0 00-.275.663c0 .247.1.488.275.663a.946.946 0 00.663.274.95.95 0 00.664-.274.945.945 0 00.274-.663c0-.247-.1-.488-.274-.663zm0 5.25a.946.946 0 00-.664-.274c-.247 0-.488.1-.663.274a.945.945 0 00-.275.663c0 .247.1.488.275.663a.946.946 0 00.663.275c.247 0 .488-.1.664-.275a.945.945 0 00.274-.663c0-.247-.1-.488-.274-.663zm0 5.25a.946.946 0 00-.664-.275c-.247 0-.488.1-.663.275a.945.945 0 00-.275.663c0 .247.1.488.275.663a.944.944 0 00.663.275c.247 0 .49-.1.664-.275a.945.945 0 00.274-.663c0-.247-.1-.488-.274-.663zm16.653-10.774H10.96a.938.938 0 000 1.875h13.31a.938.938 0 000-1.875zm21.094-13.095a3.912 3.912 0 00-2.988-.394 3.912 3.912 0 00-2.391 1.835L28.188 34.093a.94.94 0 00-.12.365l-.83 7.438a.938.938 0 001.488.86l6.026-4.44a.935.935 0 00.256-.285l11.798-20.434a3.942 3.942 0 00-1.441-5.38zM29.339 39.975l.434-3.885 2.713 1.567-3.147 2.318zm4.514-3.694l-3.572-2.062 9.467-16.398 3.573 2.062-9.468 16.398zM45.182 16.66l-.924 1.6-3.572-2.062.924-1.6c.275-.478.72-.819 1.252-.961a2.048 2.048 0 011.565.206c.477.275.818.72.961 1.252a2.05 2.05 0 01-.206 1.565z"/></g><defs><clipPath id="clip0_1143_31"><path fill="#fff" d="M0 0h48v48H0z"/></clipPath></defs></svg>