<svg width="599" height="540" viewBox="0 0 599 540" fill="none" xmlns="http://www.w3.org/2000/svg"><path d="M306.566 10.539l-8.215-8.199-8.215 8.199 8.215 8.198 8.215-8.198zm-16.53.044l-4.902-4.893-4.902 4.893 4.902 4.892 4.902-4.892zm26.746-.01L311.88 5.68l-4.902 4.892 4.902 4.892 4.902-4.892zm-25.379 518.87l8.215 8.199 8.215-8.199-8.215-8.198-8.215 8.198zm16.554-.02l4.902 4.892 4.902-4.892-4.902-4.892-4.902 4.892zm-26.766-.011l4.902 4.892 4.902-4.892-4.902-4.892-4.902 4.892zM9.712 251.744V68.402m58.17-57.835h212.352M31.892 32.512H9.902V10.567m21.99 21.945v13.135H9.902v9.62h10.995a11.006 11.006 0 00-7.775 3.215 10.961 10.961 0 00-3.22 7.758v2.162m21.99-35.89H45.08V10.567h9.614V21.54c0-2.9 1.15-5.684 3.2-7.74a11.006 11.006 0 017.74-3.233h2.194M31.892 32.512V10.567H9.902m0 0h28.652V39.16H9.901V10.567zm270.955 518.731H67.665M9.712 288.743v184.693c0 2.91 1.159 5.701 3.22 7.759a11.009 11.009 0 007.775 3.213H9.712v9.594h21.99v13.162m0 0v21.945H9.712m21.99-21.945h13.161v21.945h9.641v-10.973a10.96 10.96 0 003.22 7.759 11.005 11.005 0 007.775 3.214h2.166m-35.963-21.945H9.712v21.945m0 0v-28.593h28.652v28.593H9.712zm8.218-259.284l-8.215 8.198-8.215-8.198 8.215-8.198 8.215 8.198zm-3.338-13.167L9.69 261.55l-4.902-4.892 4.902-4.893 4.902 4.893zm-.009 26.692l-4.902 4.892-4.902-4.892 4.902-4.892 4.902 4.892zM317.118 10.675h213.405m57.98 240.583V66.564a10.96 10.96 0 00-3.22-7.758 11.008 11.008 0 00-7.775-3.214h10.995v-9.621h-8.828m-49.179-35.08h2.194c2.916 0 5.712 1.156 7.774 3.214a10.96 10.96 0 013.22 7.759V10.89h9.614v21.945h13.188V45.97h13.162m8.855 242.258V471.57m-270.735 57.862H532.5c2.916 0 5.713-1.156 7.774-3.214a10.96 10.96 0 003.221-7.758v10.972h9.641v-21.945h13.161m0 0h21.989v21.945m-21.989-21.945v-13.161h22.017v-9.594h-11.022c2.918 0 5.718-1.156 7.784-3.213a10.991 10.991 0 003.238-7.76v-2.189m-22.017 35.917v21.945h21.989m0 0h-28.651V500.84h28.651v28.593zM566.513 32.836V10.865h21.99v21.971h-21.99zm21.963-21.971v28.593h-28.651V10.865h28.651zm-8.224 259.278l8.215-8.198 8.214 8.198-8.214 8.198-8.215-8.198zm3.353 13.21l4.902-4.892 4.902 4.892-4.902 4.892-4.902-4.892zm-.009-26.711l4.902-4.892 4.902 4.892-4.902 4.893-4.902-4.893z" stroke="#8D0327" stroke-width="3" stroke-linecap="round" stroke-linejoin="round"/></svg>