<svg width="22" height="280" viewBox="0 0 22 280" fill="none" xmlns="http://www.w3.org/2000/svg"><path d="M13.341 166.441c5.029-5.298 7.443-8.878 8.237-12.216.552-2.32.558-2.949.044-5.312-.764-3.51-1.558-4.849-4.11-6.93-1.372-1.118-2.216-2.002-2.107-2.207.1-.188.89-.809 1.755-1.381 4.019-2.651 5.83-8.928 4.008-13.893-1.32-3.598-2.364-4.976-10.405-13.738-6.462-7.041-8.617-11.394-8.617-17.41 0-5.101 1.969-8.86 5.704-10.891 2.015-1.095 4.18-1.847 5.316-1.847.368 0 .98-.182 1.361-.404l.692-.405V40.501c0-21.618-.085-39.49-.189-39.717-.104-.225-.369-.41-.59-.41-.22 0-.484.185-.588.41-.104.226-.19 17.904-.19 39.285 0 43.425.207 39.753-2.267 40.305-4.049.903-7.54 3.439-9.04 6.564-2.397 4.996-1.728 11.754 1.739 17.547 1.577 2.637 3.614 5.192 7.987 10.019 5.68 6.27 7.431 9.217 7.725 12.995.254 3.27-.888 6.682-2.888 8.631-1.478 1.441-5.005 2.915-6.977 2.915-5.211 0-9.107-3.889-7.37-7.357.536-1.07 2.196-2.252 3.164-2.252h.739l-.75 1.234c-.87 1.434-.772 2.335.36 3.279 1.084.905 2.144 1.053 3.458.485 2.905-1.258 2.883-4.326-.046-6.15-1.364-.85-4.654-.761-6.344.173-1.736.958-2.89 2.666-3.099 4.584-.138 1.271-.033 1.768.624 2.967.435.792 1.363 1.958 2.063 2.592.7.633 1.274 1.298 1.274 1.476 0 .178-.689.953-1.53 1.721-2.721 2.483-3.228 5.338-1.388 7.82 1.938 2.615 5.154 3.571 7.898 2.348 1.86-.83 2.875-2.255 2.694-3.786-.323-2.731-4.54-3.963-6.127-1.791-.789 1.079-.773 1.827.064 3.071.848 1.258.551 1.537-.93.876-1.343-.601-2.55-2.366-2.55-3.733 0-3.061 4.657-6.14 8.51-5.626 5.46.728 9.24 5.111 9.23 10.701-.009 3.7-1.988 7.381-6.894 12.817-9.453 10.472-11.524 14.046-11.966 20.644-.302 4.507 1.07 8.709 3.643 11.16 1.468 1.399 4.229 2.829 6.475 3.355 1.14.267 2.017.637 2.206.932.207.323.314 13.7.314 39.308 0 21.35.085 39.003.189 39.229.243.53.935.53 1.178 0 .104-.226.19-18.098.19-39.716v-39.307l-.693-.404c-.38-.222-1.12-.404-1.643-.404-.523 0-1.927-.392-3.12-.872-3.749-1.507-6.465-4.452-7.339-7.957-.526-2.109-.18-7.473.632-9.819 1.349-3.893 4.08-7.665 10.284-14.202z" fill="#8D0327"/></svg>